<?xml version="1.0" standalone="no"?>
<!DOCTYPE svg PUBLIC "-//W3C//DTD SVG 20010904//EN"
 "http://www.w3.org/TR/2001/REC-SVG-20010904/DTD/svg10.dtd">
<svg version="1.0" xmlns="http://www.w3.org/2000/svg"
 width="831.000000pt" height="1324.000000pt" viewBox="0 0 831.000000 1324.000000"
 preserveAspectRatio="xMidYMid meet">
<metadata>
Created by potrace 1.16, written by Peter Selinger 2001-2019
</metadata>
<g transform="translate(0.000000,1324.000000) scale(0.100000,-0.100000)"
fill="#000000" stroke="none">
<path d="M3278 12889 c-10 -5 -30 -30 -44 -55 -38 -65 -45 -171 -15 -239 12
-26 20 -49 19 -51 -2 -1 -29 -7 -60 -13 -71 -13 -124 -39 -213 -106 -99 -74
-125 -85 -192 -85 -73 0 -111 22 -155 90 -40 61 -69 64 -105 11 -80 -118 -65
-302 32 -410 l37 -41 -26 -10 c-76 -28 -132 -102 -166 -219 -23 -77 -61 -130
-97 -132 -10 -1 -33 -2 -52 -3 -48 -2 -59 -23 -37 -80 35 -92 143 -183 238
-200 36 -6 36 -7 27 -39 -14 -48 -11 -127 7 -187 19 -63 35 -92 82 -142 l35
-37 -25 -58 c-14 -32 -29 -68 -33 -80 -3 -13 -13 -23 -21 -23 -9 0 -14 -11
-14 -35 0 -23 5 -35 14 -35 8 0 19 -25 30 -67 20 -80 66 -161 122 -213 l41
-38 6 -128 c5 -138 28 -229 88 -363 72 -160 223 -336 375 -437 148 -98 243
-131 417 -141 l108 -6 -3 -31 c-3 -30 -4 -31 -58 -32 -62 -2 -169 -37 -274
-92 -57 -30 -78 -48 -122 -107 -31 -43 -73 -85 -102 -104 -66 -42 -158 -140
-217 -231 -63 -98 -346 -599 -452 -800 -27 -51 -25 -85 8 -132 l22 -30 -81
-162 c-193 -383 -240 -504 -249 -641 -13 -200 84 -402 228 -475 128 -66 318
-34 448 74 75 63 181 209 197 271 3 14 9 25 13 25 3 0 14 -28 24 -63 10 -34
32 -93 49 -132 l31 -70 -11 -265 c-7 -146 -21 -350 -32 -455 -12 -104 -24
-236 -27 -292 -6 -100 -5 -103 22 -138 l27 -36 -23 -62 c-36 -98 -203 -504
-244 -592 -222 -479 -406 -914 -486 -1144 -27 -79 -76 -246 -109 -370 -75
-287 -150 -534 -251 -831 -45 -129 -86 -250 -92 -267 -8 -26 -16 -33 -37 -33
-42 0 -77 -35 -121 -121 -86 -172 -102 -248 -61 -292 30 -32 28 -48 -12 -86
-41 -40 -86 -47 -334 -57 -176 -7 -255 2 -407 49 -128 39 -303 49 -384 22
-147 -49 -301 -226 -301 -348 0 -56 102 -193 221 -296 85 -74 230 -177 336
-240 76 -45 345 -168 462 -211 42 -15 166 -66 276 -113 248 -105 344 -139 468
-166 125 -27 206 -28 239 -1 33 25 157 304 202 452 19 62 41 151 51 198 20
104 58 224 85 268 16 25 25 32 38 26 9 -4 45 -9 79 -12 56 -4 64 -2 85 21 13
13 47 72 76 130 59 118 71 179 53 253 l-12 47 130 266 c188 387 259 568 326
829 24 93 44 149 69 190 20 31 42 88 51 126 20 88 41 128 162 314 54 83 142
222 196 309 179 290 273 437 283 440 5 1 65 -136 133 -305 241 -596 346 -818
461 -974 53 -71 109 -116 660 -529 245 -183 462 -349 483 -367 32 -30 37 -40
37 -79 0 -24 7 -57 15 -72 30 -59 226 -219 279 -228 22 -3 49 2 81 16 26 12
49 21 50 21 12 0 45 -111 51 -172 6 -72 2 -113 -27 -268 -16 -88 -64 -175
-123 -223 -83 -68 -156 -147 -180 -196 -54 -106 -57 -223 -8 -367 26 -75 29
-80 73 -102 63 -31 197 -46 354 -38 282 13 490 94 658 255 115 111 199 256
286 493 27 73 90 230 140 348 142 330 167 440 122 529 -35 67 -256 234 -466
351 -71 39 -149 85 -172 101 -43 30 -43 30 -43 93 0 77 -17 104 -140 219 -106
100 -127 111 -199 103 -55 -6 -57 -6 -102 36 -26 24 -135 143 -243 265 -193
218 -270 292 -387 375 -52 37 -59 46 -59 75 0 50 -22 93 -69 136 -22 21 -41
43 -41 50 0 32 -42 362 -55 432 -50 275 -57 354 -65 765 -8 378 -18 504 -45
591 -3 9 0 21 7 26 7 4 186 8 398 8 356 0 393 2 495 22 198 40 309 90 412 186
58 55 133 174 133 213 0 7 42 33 93 57 101 49 133 77 171 153 59 119 80 264
80 564 -1 225 -16 417 -45 570 -24 121 -94 196 -227 241 -73 24 -74 26 -91
149 -7 47 -22 125 -33 174 l-21 90 24 17 c69 52 83 66 96 97 21 50 18 135 -8
217 -24 79 -158 386 -225 515 -114 221 -265 402 -389 467 -109 57 -296 89
-583 100 -117 4 -168 10 -177 20 -8 7 -21 39 -29 71 -40 143 -113 240 -219
288 -57 26 -74 28 -212 32 -164 5 -229 -4 -311 -42 -95 -44 -174 -135 -189
-217 -11 -60 -16 -63 -74 -49 -46 11 -52 15 -60 48 -12 44 -31 193 -31 239 0
30 3 33 30 33 45 0 105 34 119 67 l11 28 99 0 c85 0 103 3 128 21 37 28 41 58
10 79 -64 42 -50 122 29 165 72 38 156 127 198 210 20 40 36 81 36 90 0 10 23
45 52 79 48 55 54 59 69 45 15 -14 19 -13 39 8 32 34 76 126 95 199 17 63 17
210 0 266 -6 19 -2 23 32 29 104 19 189 103 208 207 11 56 -5 69 -74 61 -52
-6 -60 -4 -88 20 -17 15 -39 47 -49 72 -15 41 -16 56 -4 157 10 89 10 124 0
172 -27 136 -114 252 -239 319 -62 33 -62 34 -32 38 16 2 58 1 91 -3 73 -8 97
-3 105 22 14 42 -79 144 -164 182 -49 22 -181 30 -248 15 -33 -7 -33 -7 -33
32 0 134 -69 268 -176 339 -53 34 -101 41 -111 14 -4 -9 3 -44 15 -77 11 -34
24 -79 28 -101 l7 -40 -45 60 c-99 132 -228 229 -373 277 -58 19 -91 23 -190
23 -134 0 -187 -12 -320 -73 -75 -34 -86 -37 -180 -37 -91 0 -106 3 -165 31
-82 39 -130 80 -161 139 -24 45 -40 53 -71 34z m130 -207 c88 -57 155 -76 267
-76 86 0 110 4 170 28 151 60 225 78 325 78 52 0 118 -5 145 -11 187 -44 375
-222 426 -401 18 -65 27 -74 52 -53 46 41 76 169 58 246 -5 20 -5 37 -1 37 14
0 68 -94 80 -140 11 -42 8 -159 -7 -217 -4 -19 -1 -23 16 -23 12 0 41 10 64
23 36 19 57 22 142 22 85 0 107 -4 150 -24 l50 -24 -66 -8 c-88 -10 -166 -44
-185 -81 -9 -17 -14 -32 -11 -34 2 -2 37 -15 77 -29 163 -55 250 -144 295
-300 16 -53 16 -70 5 -156 -20 -147 -4 -215 64 -287 37 -41 76 -62 111 -62 36
0 31 -22 -14 -63 -46 -41 -88 -52 -165 -43 -68 9 -72 -1 -38 -79 34 -81 42
-210 17 -286 l-18 -54 -14 39 c-32 94 -59 89 -66 -12 -3 -54 -12 -92 -28 -123
l-23 -44 -7 47 c-19 125 -79 220 -161 253 -54 22 -141 23 -192 1 -27 -11 -68
-16 -141 -16 l-103 0 -7 38 c-3 20 -22 76 -41 123 -41 103 -42 111 -11 100 39
-15 132 -22 157 -12 19 7 21 10 10 15 -8 3 -46 17 -83 31 -156 57 -262 138
-307 232 -31 64 -37 175 -16 266 26 111 19 132 -49 154 -24 8 -32 17 -39 49
-36 167 -114 248 -241 248 -70 0 -108 -17 -165 -74 -49 -49 -78 -107 -119
-235 -38 -117 -68 -172 -129 -237 -57 -61 -127 -105 -203 -129 -92 -29 -94
-26 -48 41 23 34 53 93 67 133 27 79 41 213 24 243 -8 15 -15 8 -42 -47 -44
-86 -145 -186 -230 -227 -100 -49 -178 -65 -289 -60 -121 5 -181 31 -273 117
-36 33 -68 61 -72 61 -3 0 -6 -13 -6 -28 0 -39 54 -117 106 -155 33 -24 43
-37 39 -52 -18 -74 -27 -174 -22 -265 5 -102 4 -106 -18 -123 -24 -17 -25 -17
-59 13 -72 64 -97 204 -55 315 12 31 18 59 14 63 -4 4 -32 7 -63 7 -43 1 -70
8 -109 29 -47 26 -122 92 -112 99 2 1 26 12 54 23 61 24 87 60 120 168 43 138
72 167 208 200 96 24 137 40 137 55 0 12 -26 21 -63 21 -17 0 -50 9 -74 21
-102 49 -156 182 -122 302 l10 39 38 -41 c49 -53 94 -71 178 -71 82 0 118 16
232 99 115 84 172 104 293 105 53 1 100 4 104 8 4 4 -15 27 -41 50 -26 23 -56
60 -66 83 -20 44 -25 129 -9 171 l11 27 28 -45 c15 -24 51 -58 79 -76z m733
-727 c37 -24 89 -110 89 -147 0 -16 -3 -17 -22 -7 -13 7 -45 36 -73 66 -41 45
-60 57 -104 69 -29 7 -58 11 -62 8 -5 -3 -9 -1 -9 5 0 13 17 23 54 31 43 10
85 2 127 -25z m-85 -76 c18 -11 37 -26 44 -34 11 -14 5 -15 -56 -10 -46 4 -87
1 -121 -8 -29 -8 -53 -12 -53 -9 0 15 46 75 64 83 28 11 84 2 122 -22z m69
-131 c22 -5 75 -23 118 -40 74 -28 79 -32 74 -57 -28 -155 -30 -183 -19 -243
17 -93 57 -161 137 -237 64 -59 74 -74 97 -141 15 -41 36 -101 47 -132 34 -93
40 -88 -117 -88 l-138 0 -23 56 c-78 186 -343 285 -553 205 -98 -38 -186 -134
-221 -243 -6 -16 -8 -16 -38 -1 -48 24 -118 28 -162 9 -38 -15 -38 -15 -49 12
-26 60 -82 134 -129 168 -87 63 -223 90 -331 65 -21 -5 -38 -7 -38 -6 0 2 -3
11 -6 19 -5 12 -2 15 10 10 10 -4 51 9 99 32 76 36 88 39 172 39 100 0 115 5
115 41 0 53 -66 82 -161 71 -87 -11 -178 -62 -222 -126 -18 -26 -18 -25 -14
89 5 139 10 153 46 142 14 -4 82 -7 151 -6 171 1 242 26 384 136 l30 22 -24
-42 c-13 -23 -50 -67 -82 -98 -32 -31 -58 -62 -58 -69 0 -33 30 -45 115 -45
231 0 411 139 490 378 9 30 27 59 40 68 50 33 160 38 260 12z m-143 -709 c104
-22 197 -85 243 -164 92 -157 19 -378 -154 -462 -48 -24 -68 -28 -141 -28 -73
0 -94 4 -147 29 -74 34 -144 104 -175 173 -25 57 -35 172 -19 228 27 100 122
190 231 219 68 18 95 19 162 5z m-1016 -10 c170 -31 282 -169 272 -335 -13
-201 -211 -348 -397 -292 l-43 13 -3 245 c-1 135 -5 268 -10 296 -7 49 -7 51
21 62 25 10 52 16 90 21 6 0 37 -4 70 -10z m-268 -152 c15 -15 22 -32 22 -59
l0 -38 -56 0 -56 0 5 29 c4 17 13 46 21 66 16 39 22 39 64 2z m772 -105 c28
-13 37 -25 43 -57 43 -206 102 -292 253 -362 53 -25 70 -28 164 -28 97 0 110
2 164 30 119 60 221 199 233 320 l6 54 141 -6 c77 -3 142 -6 143 -7 6 -4 -18
-145 -33 -192 -21 -68 -12 -90 36 -87 52 2 109 52 205 178 50 64 104 124 120
133 44 23 114 20 156 -6 70 -43 106 -154 88 -277 -32 -231 -261 -403 -418
-314 -53 29 -64 23 -109 -62 -19 -35 -57 -95 -85 -134 -27 -38 -54 -85 -60
-105 -24 -85 14 -448 54 -518 19 -32 19 -34 0 -70 -27 -54 -155 -192 -236
-257 -38 -30 -116 -79 -173 -108 l-104 -52 -111 0 c-94 0 -118 3 -152 21 -77
40 -100 109 -79 237 l7 38 18 -41 c20 -45 28 -48 54 -20 17 19 18 28 7 118 -7
53 -14 106 -18 118 -5 19 4 24 98 54 170 53 394 175 466 252 28 31 42 98 20
98 -8 0 -59 -30 -113 -66 -196 -131 -404 -215 -584 -236 -81 -9 -109 -8 -175
5 -249 51 -490 253 -621 520 -55 112 -73 182 -82 311 l-6 99 24 -7 c49 -15
158 -18 206 -7 27 7 69 25 94 42 l44 29 3 -33 c5 -58 12 -76 44 -113 39 -45
89 -67 129 -59 41 9 36 26 -17 54 -53 28 -94 83 -94 124 0 21 12 41 46 73 52
51 74 96 74 153 0 48 -16 62 -25 23 -3 -16 -19 -44 -35 -63 l-30 -34 22 50
c11 27 23 80 26 117 4 61 7 68 31 77 42 15 103 12 141 -7z m1300 -110 c-27
-38 -62 -79 -76 -93 l-27 -24 7 35 c4 19 9 61 13 93 l6 57 63 0 64 0 -50 -68z
m-2046 -49 c-7 -137 -9 -141 -35 -117 -42 38 -100 189 -83 216 3 5 32 8 64 8
l60 0 -6 -107z m2097 -564 l57 -13 -5 -37 c-4 -27 0 -48 15 -73 12 -21 16 -36
10 -38 -11 -4 -97 7 -140 17 -23 6 -30 2 -53 -36 -33 -54 -52 -69 -83 -69 -21
0 -23 3 -18 28 4 15 21 50 38 77 17 28 47 76 66 108 20 32 40 56 46 53 6 -2
36 -10 67 -17z m632 -462 c29 -19 65 -48 80 -66 29 -34 81 -139 92 -184 l7
-28 -52 3 -52 3 -17 68 c-19 75 -42 111 -91 144 -48 34 -94 43 -206 43 -185 0
-256 -42 -270 -161 -4 -33 -12 -63 -19 -65 -7 -3 -29 2 -50 10 -34 15 -36 18
-30 48 11 53 55 126 94 155 67 51 120 62 299 63 l163 0 52 -33z m-77 -143 c21
-21 36 -50 40 -72 3 -20 6 -41 7 -47 1 -6 -44 -13 -108 -17 -88 -5 -129 -3
-204 12 -51 10 -95 20 -96 22 -2 2 0 23 5 48 5 29 17 52 35 67 24 21 35 23
157 23 l131 0 33 -36z m-650 -150 c27 -9 50 -18 52 -19 2 -2 -44 -49 -101
-106 -119 -119 -231 -265 -311 -406 -89 -159 -186 -366 -231 -496 l-43 -122
-56 -7 c-60 -8 -101 -25 -128 -55 -23 -25 -48 -97 -48 -138 0 -18 -7 -38 -15
-45 -23 -19 -34 -73 -24 -125 7 -36 5 -53 -7 -77 -11 -22 -14 -46 -10 -87 6
-56 6 -67 3 -176 -2 -49 2 -66 22 -94 30 -42 94 -83 182 -116 80 -31 109 -60
204 -204 86 -132 254 -307 333 -349 33 -18 72 -32 86 -32 18 0 52 -22 109 -71
164 -142 360 -269 615 -397 94 -48 134 -73 137 -87 11 -59 75 -504 75 -527 0
-23 -8 -30 -75 -57 -153 -64 -468 -144 -718 -183 -195 -30 -712 -33 -907 -5
-224 32 -473 94 -615 154 l-70 29 1 50 c1 27 11 130 23 229 43 375 45 424 43
1010 l-2 570 34 22 c41 26 66 78 66 136 0 24 7 61 15 81 9 20 14 49 13 64 -3
23 1 27 34 32 86 15 129 76 136 190 8 134 -37 229 -121 259 -80 30 -82 33 -80
92 2 65 97 401 147 523 20 48 59 131 86 184 l49 97 0 -61 c1 -52 6 -69 34
-110 71 -107 256 -153 418 -104 143 43 285 134 420 269 100 101 154 179 164
243 4 21 8 38 9 38 1 0 25 -7 52 -16z m345 -68 c110 -28 175 -54 163 -65 -5
-4 -47 -34 -93 -67 -129 -91 -315 -291 -426 -459 -99 -148 -224 -381 -271
-504 -16 -40 -35 -76 -42 -79 -19 -7 -202 67 -202 81 0 64 155 411 268 602 79
132 266 365 343 425 44 36 138 90 155 90 6 0 54 -11 105 -24z m639 -16 c422
-20 644 -50 732 -97 163 -88 349 -376 525 -813 66 -163 78 -239 43 -282 -39
-51 -43 -44 -95 157 -61 237 -125 400 -220 560 -65 109 -129 186 -215 258 -82
69 -111 83 -195 98 -87 15 -172 7 -230 -22 -139 -70 -294 -296 -254 -371 l12
-22 26 31 c14 17 42 56 61 88 42 68 153 185 176 185 27 0 148 -130 189 -203
47 -85 105 -261 149 -454 39 -171 45 -209 85 -513 59 -446 90 -735 80 -744 -2
-2 -42 -5 -88 -7 l-84 -4 -18 89 c-24 120 -109 372 -176 526 -49 109 -54 127
-42 145 31 48 40 76 33 97 -22 71 -345 647 -459 818 -101 153 -150 208 -265
300 -68 54 -90 78 -90 96 0 13 -14 39 -31 59 l-31 35 83 0 c46 0 180 -5 299
-10z m-2157 -112 c-102 -152 -241 -512 -292 -757 -11 -51 -22 -95 -24 -97 -2
-3 -16 0 -31 6 -15 5 -50 10 -77 10 -27 0 -49 5 -49 10 0 28 84 367 111 450
52 155 110 271 156 310 34 29 212 119 235 120 4 0 -9 -24 -29 -52z m1776 -74
c75 -51 212 -184 270 -263 93 -126 326 -514 416 -691 15 -30 43 -83 61 -116
l35 -62 -33 -20 c-77 -46 -696 -352 -723 -358 l-31 -6 -119 248 c-123 253
-175 334 -208 321 -37 -14 -20 -70 98 -313 63 -130 115 -241 115 -246 0 -17
-58 -7 -204 34 -127 35 -153 46 -180 74 -47 49 -82 118 -105 211 -27 108 -52
157 -117 224 l-55 55 25 55 c44 100 167 323 228 414 70 104 200 257 294 344
57 54 160 131 174 131 3 0 30 -16 59 -36z m1017 -49 c63 -31 176 -147 243
-250 136 -208 282 -663 345 -1082 72 -469 100 -823 93 -1177 -5 -291 -16 -388
-58 -531 -72 -246 -291 -358 -724 -371 -179 -6 -196 -1 -248 68 -63 84 -78
191 -112 799 l-6 107 118 4 c92 3 128 8 164 25 l46 21 7 -197 c7 -221 33 -399
64 -440 42 -57 74 -66 232 -66 122 0 156 4 216 22 95 30 146 69 179 136 38 79
52 277 35 495 -6 86 -11 166 -10 177 13 133 -12 299 -52 351 -21 26 -23 27
-102 19 -45 -4 -94 -8 -111 -9 l-30 -1 -7 140 c-7 151 -44 483 -84 765 -53
370 -128 654 -218 825 -17 33 -62 93 -101 134 l-70 74 70 -6 c43 -4 89 -16
121 -32z m-3267 -317 c-22 -81 -52 -204 -67 -274 -17 -81 -32 -130 -42 -135
-8 -4 -48 -17 -88 -29 -56 -16 -82 -30 -116 -63 -38 -36 -45 -49 -51 -97 -3
-30 -15 -97 -26 -147 -10 -51 -19 -109 -19 -129 l0 -37 -44 39 c-71 64 -75 75
-42 142 16 31 53 95 82 140 30 46 80 134 111 195 64 129 182 341 226 407 35
52 108 142 112 138 2 -2 -15 -69 -36 -150z m151 -513 c51 -25 90 -65 90 -91 0
-32 -12 -36 -66 -24 -51 12 -270 15 -297 4 -9 -3 -17 -16 -17 -29 0 -30 21
-35 143 -35 161 0 227 -27 227 -93 0 -53 -10 -60 -61 -42 -99 36 -291 28 -306
-12 -12 -30 24 -40 150 -45 87 -3 131 -10 154 -22 37 -19 51 -55 37 -95 l-10
-26 -125 4 c-155 4 -189 -2 -189 -34 0 -30 16 -35 109 -35 165 0 207 -18 179
-77 -11 -24 -22 -29 -83 -39 -123 -22 -198 -43 -216 -61 -15 -15 -17 -25 -9
-58 5 -22 15 -78 21 -124 6 -46 20 -113 30 -149 l19 -66 -41 -95 c-100 -234
-226 -350 -392 -359 -149 -9 -243 76 -292 263 -31 121 -10 252 67 420 145 314
210 451 217 458 10 10 96 -49 105 -71 9 -20 -10 -50 -75 -119 -162 -174 -240
-293 -219 -333 12 -22 12 -22 34 -14 13 5 160 163 269 289 l25 30 21 -47 c14
-35 26 -48 40 -48 36 0 43 31 25 112 -25 113 -30 342 -10 466 9 57 22 112 29
123 16 26 62 46 170 75 105 28 192 27 247 -1z m207 -127 c26 -49 25 -168 -3
-204 -34 -46 -41 -40 -41 38 -1 40 -2 82 -3 93 -3 32 12 105 21 105 5 0 16
-15 26 -32z m697 21 c31 -5 109 -30 173 -55 64 -25 128 -44 142 -42 19 2 31
14 45 41 16 34 20 37 35 23 33 -30 82 -125 124 -242 59 -162 74 -190 115 -224
80 -65 331 -126 667 -160 61 -6 184 -29 274 -51 90 -21 172 -39 182 -39 29 0
23 38 -10 70 -31 28 -71 41 -246 81 -55 12 -104 26 -109 30 -5 4 114 69 264
144 150 75 273 135 275 133 11 -13 112 -257 148 -358 73 -202 91 -288 92 -420
0 -109 -1 -118 -30 -169 -32 -57 -103 -122 -163 -147 -67 -28 -224 -13 -447
42 -233 58 -455 150 -854 355 l-214 110 -101 5 c-136 8 -183 22 -381 119 -178
87 -219 117 -213 157 3 21 8 23 63 23 67 0 85 7 85 35 0 22 -21 36 -72 45 -48
9 -81 44 -76 81 l3 29 90 0 c89 0 90 0 90 25 0 29 -51 60 -101 60 -36 0 -61
24 -70 66 -10 49 11 58 118 50 92 -6 118 0 118 30 0 23 -42 43 -110 51 l-65 8
-3 37 c-5 63 41 80 162 57z m3000 -663 c38 -16 102 -70 118 -100 10 -19 37
-234 38 -303 l0 -32 -69 24 c-115 39 -106 26 -119 182 -7 76 -15 162 -18 191
-7 58 -4 61 50 38z m-3992 -49 c-2 -18 1 -127 7 -242 6 -115 9 -211 6 -213
-14 -14 -115 382 -115 454 0 6 17 16 38 22 64 17 68 16 64 -21z m1291 -244
l98 -6 47 -56 c25 -31 72 -83 104 -117 68 -73 80 -105 48 -139 -57 -61 -127
-32 -265 108 -55 56 -120 131 -144 166 l-44 64 29 -7 c16 -4 73 -9 127 -13z
m2402 -85 c20 -92 25 -120 25 -174 0 -76 -20 -105 -87 -129 -99 -34 -342 -37
-401 -6 -28 15 -27 17 4 86 16 35 29 84 33 128 l6 72 120 12 c66 6 149 16 185
21 103 15 109 15 115 -10z m-1810 -160 c61 -31 165 -79 233 -108 68 -29 132
-60 143 -69 15 -13 21 -34 26 -98 3 -46 3 -83 -1 -83 -14 0 -191 93 -294 154
-192 115 -275 177 -297 222 -11 22 -30 54 -43 72 l-23 31 73 -33 c40 -18 123
-58 183 -88z m2190 56 c84 -11 82 -7 90 -157 12 -225 -24 -543 -69 -610 -21
-30 -132 -115 -139 -106 -2 2 2 58 9 124 8 71 13 252 13 444 l1 323 23 -5 c12
-3 45 -9 72 -13z m-2284 -238 c134 -91 352 -216 509 -293 127 -62 347 -153
368 -153 10 0 28 -119 21 -139 -5 -12 -133 41 -349 145 -288 140 -504 275
-640 401 l-61 56 22 23 c13 13 26 24 30 24 4 0 49 -29 100 -64z m1939 -234 c0
-309 -15 -373 -100 -421 -98 -55 -400 -68 -431 -19 -21 32 -30 99 -44 328 -17
286 -17 291 -6 309 7 11 13 10 33 -3 76 -50 421 -41 514 12 11 6 22 12 27 12
4 0 7 -98 7 -218z m-1247 183 c43 -13 102 -29 131 -35 l54 -11 7 -125 c4 -69
5 -128 2 -130 -3 -3 -22 3 -44 14 -21 10 -76 34 -123 52 -47 18 -90 37 -96 42
-7 5 -15 48 -18 96 -4 48 -10 95 -12 105 -7 23 5 22 99 -8z m118 -608 l96 -45
8 -68 c14 -138 49 -245 99 -301 l31 -36 -64 6 c-35 4 -103 7 -151 7 l-86 0
-37 238 c-21 130 -37 243 -37 249 0 15 9 12 141 -50z m-217 -624 c21 -100 28
-211 36 -548 8 -322 13 -404 34 -540 32 -211 63 -432 80 -579 l14 -119 50 -49
c52 -51 62 -81 62 -200 0 -56 15 -101 33 -96 6 2 20 21 30 41 l19 37 41 -30
c63 -47 187 -170 300 -299 55 -64 161 -183 235 -264 l134 -148 -30 -62 c-17
-34 -38 -71 -46 -82 -15 -19 -16 -19 -48 20 -167 201 -432 474 -583 600 -172
144 -191 169 -197 260 -3 41 -11 48 -85 75 -24 9 -36 22 -47 54 -45 122 -150
847 -181 1251 -15 196 -38 461 -51 580 l-6 60 93 32 c52 17 97 32 101 32 3 1
9 -11 12 -26z m-2254 -23 c12 -8 9 -15 -20 -45 -18 -19 -37 -35 -41 -35 -4 0
-1 20 8 45 15 45 26 52 53 35z m115 -40 c10 -17 -105 -127 -165 -159 -34 -18
-64 -30 -67 -27 -15 14 24 64 74 96 30 19 68 51 84 72 21 26 35 35 49 31 11
-3 23 -9 25 -13z m1895 3 c0 -5 7 -71 15 -148 8 -77 15 -144 15 -148 0 -20
-194 25 -265 60 -51 26 -155 124 -155 147 0 8 45 22 128 39 70 15 150 34 177
41 58 16 85 19 85 9z m-1691 -49 c58 -13 124 -26 148 -30 l43 -6 0 -100 c0
-115 22 -282 49 -369 l19 -59 -42 26 c-110 68 -156 78 -156 35 0 -14 43 -50
142 -122 77 -56 159 -120 180 -141 l39 -39 -18 -29 c-134 -209 -285 -441 -511
-782 -150 -226 -275 -423 -279 -436 -3 -14 -1 -47 6 -74 17 -73 15 -77 -40
-128 l-52 -48 -13 -98 c-15 -104 -37 -164 -234 -639 -76 -182 -193 -441 -204
-452 -2 -3 -91 41 -197 95 -107 55 -248 124 -314 153 -66 28 -121 53 -123 54
-2 2 32 108 76 236 98 289 176 541 237 764 160 586 152 566 594 1565 65 146
133 300 151 343 32 73 36 78 74 88 23 6 59 20 80 31 51 26 147 118 172 163 16
31 23 35 44 29 14 -3 72 -17 129 -30z m352 -59 l55 -6 12 -237 c7 -130 17
-270 23 -311 6 -40 9 -75 7 -77 -2 -2 -31 22 -65 54 -46 44 -66 71 -82 115
-28 77 -48 204 -57 356 l-6 123 28 -5 c16 -3 54 -8 85 -12z m896 -8 c24 -53
115 -137 186 -172 76 -37 183 -65 255 -65 l42 0 0 -40 c0 -46 6 -45 -115 -25
-228 37 -351 105 -430 239 -46 78 -45 86 8 86 36 0 46 -4 54 -23z m-141 -4
c38 -114 128 -218 234 -270 115 -56 165 -68 282 -68 l107 0 5 -35 c3 -19 8
-84 11 -145 22 -394 148 -1201 199 -1279 12 -17 42 -41 69 -54 32 -15 47 -29
47 -42 0 -10 -27 -53 -60 -94 -33 -42 -60 -80 -60 -86 0 -31 57 8 109 75 20
26 24 28 32 13 21 -38 68 -84 178 -178 124 -105 338 -318 491 -490 52 -58 105
-117 119 -132 l24 -27 -39 -48 c-93 -116 -252 -265 -376 -352 l-46 -33 -124
99 c-67 55 -229 178 -358 273 -394 290 -502 371 -577 432 -64 52 -166 170
-215 249 -45 72 -261 573 -434 1007 -68 172 -147 359 -175 414 -47 94 -52 110
-65 222 -11 103 -34 446 -34 527 l0 25 193 -3 c161 -3 238 -1 440 16 10 0 20
-7 23 -16z m-586 -952 c0 -12 -198 -328 -507 -809 -140 -217 -167 -272 -184
-367 -6 -36 -22 -81 -35 -101 -42 -62 -61 -106 -84 -204 -28 -118 -108 -352
-165 -485 -24 -55 -96 -207 -159 -338 -64 -131 -116 -242 -116 -247 0 -21 -23
-19 -79 9 -33 17 -62 34 -64 38 -3 5 36 100 85 213 133 307 246 583 283 695
30 90 41 138 60 258 5 31 15 44 56 73 27 20 52 47 55 61 4 13 3 59 0 102 -8
88 -25 53 136 286 117 171 504 778 572 898 l61 107 42 -87 c24 -49 43 -94 43
-102z m2712 -1720 c113 -114 115 -120 68 -220 l-30 -64 -31 44 c-46 64 -88
106 -141 140 l-47 30 16 37 c8 20 22 58 30 85 7 26 19 47 26 47 6 0 56 -44
109 -99z m-126 -166 c34 -31 79 -78 99 -105 35 -47 35 -50 21 -77 -32 -58 -31
-58 -77 -7 -24 27 -72 77 -107 110 l-64 62 24 36 c12 20 27 36 32 36 5 0 37
-25 72 -55z m-8 -174 c41 -45 72 -85 70 -90 -2 -5 -32 -46 -67 -91 -73 -92
-169 -181 -286 -265 -100 -72 -151 -98 -175 -90 -10 3 -61 46 -112 96 l-93 89
25 18 c185 129 342 268 441 388 l60 74 32 -24 c18 -14 65 -61 105 -105z m493
-72 c203 -120 289 -184 289 -214 0 -49 -51 -216 -100 -330 -28 -66 -85 -210
-127 -320 -41 -110 -88 -231 -104 -269 -35 -82 -123 -217 -172 -264 l-35 -34
-30 44 c-30 44 -103 117 -135 135 -17 9 -17 12 3 57 21 49 25 51 72 31 11 -4
22 1 33 19 21 32 14 52 -25 74 -33 19 -34 22 -19 75 10 35 12 38 39 32 22 -5
31 -2 39 14 21 38 13 61 -24 77 -33 13 -35 17 -35 59 0 43 1 45 28 45 37 0 52
17 52 57 0 27 -4 34 -27 39 -49 10 -53 13 -53 36 0 13 -3 33 -6 46 -5 19 -2
22 20 22 19 0 27 6 32 24 9 36 -12 66 -44 66 -25 0 -30 6 -49 65 l-21 65 34
20 c106 66 204 246 204 377 0 24 2 43 4 43 2 0 73 -41 157 -91z m-277 -87
c-48 -95 -111 -164 -177 -196 -104 -49 -107 -44 -26 41 83 87 172 203 210 272
l24 44 3 -44 c3 -34 -5 -59 -34 -117z m-4870 -58 c102 -41 457 -216 524 -258
43 -27 43 -28 37 -69 -12 -81 -49 -171 -92 -225 l-19 -23 -244 125 c-135 69
-279 139 -320 156 -91 39 -110 55 -110 92 0 29 35 128 72 201 23 47 36 47 152
1z m5561 -149 c34 -31 37 -38 30 -71 -15 -83 -58 -211 -111 -331 -82 -188
-149 -352 -174 -429 -29 -89 -108 -252 -159 -330 -50 -75 -157 -177 -234 -223
-138 -82 -347 -125 -570 -119 -172 5 -195 13 -214 77 -7 25 -12 45 -10 46 1 1
44 -3 96 -9 107 -11 303 3 411 30 36 9 110 37 165 63 214 101 335 266 475 646
28 77 85 225 127 328 45 113 82 222 92 273 9 48 21 84 28 84 6 0 28 -16 48
-35z m-866 -129 c6 -25 11 -49 11 -54 0 -6 -33 -17 -72 -26 -40 -9 -97 -28
-126 -41 -30 -14 -55 -25 -57 -25 -4 0 -35 91 -35 102 0 14 61 40 154 63 50
13 96 24 102 25 7 0 17 -20 23 -44z m-3923 -117 c23 -16 44 -35 47 -43 8 -21
-7 -68 -55 -168 -30 -64 -46 -88 -60 -88 -14 0 -191 81 -206 95 -2 1 11 23 28
49 42 62 70 144 70 207 l0 51 68 -38 c37 -20 86 -50 108 -65z m-855 -25 c50
-26 88 -52 86 -58 -2 -6 -29 -29 -60 -50 l-57 -39 -53 50 c-29 27 -63 56 -76
62 l-23 13 33 34 c18 19 39 34 47 34 8 0 54 -21 103 -46z m-1070 -33 c36 -10
78 -25 95 -34 88 -46 147 -177 130 -291 l-7 -46 -167 112 c-164 110 -264 167
-350 200 -25 10 -41 22 -37 28 8 13 62 41 100 51 44 12 160 2 236 -20z m5897
-22 l3 -36 -88 -6 c-48 -3 -99 -10 -113 -15 -14 -5 -37 -12 -52 -16 -25 -6
-28 -3 -28 17 0 18 11 29 49 46 62 29 146 50 191 48 33 -2 35 -5 38 -38z
m-5106 -19 c44 -13 164 -99 152 -109 -5 -5 -25 -14 -44 -20 -33 -11 -36 -10
-54 16 -11 15 -42 49 -70 76 -51 48 -49 55 16 37z m-491 -37 c33 -28 89 -100
89 -115 0 -4 -22 -8 -49 -8 l-48 0 -22 60 c-12 32 -26 62 -31 65 -17 10 -11
25 9 25 11 0 34 -12 52 -27z m343 0 c16 -8 52 -38 80 -66 50 -51 51 -51 26
-58 -59 -17 -76 -11 -95 31 -10 22 -33 56 -52 75 -18 19 -33 37 -33 40 0 8 36
-3 74 -22z m602 -21 c63 -109 154 -173 305 -212 l86 -22 -24 -59 c-13 -32 -35
-109 -48 -171 -14 -62 -32 -138 -41 -168 -19 -68 -94 -260 -100 -260 -3 0 -38
20 -77 44 -40 24 -191 96 -337 161 -327 145 -428 195 -598 297 -117 70 -133
83 -128 102 3 11 9 44 12 73 l7 52 46 -5 c34 -5 52 -14 71 -35 29 -34 60 -38
67 -9 5 17 14 20 65 20 51 0 61 -3 65 -20 10 -40 83 -32 83 9 0 15 10 20 47
26 44 6 49 5 69 -20 28 -36 57 -27 78 24 12 31 22 41 47 46 24 6 34 3 41 -9
11 -20 71 -21 88 -1 7 8 10 25 6 39 -5 20 1 29 42 55 27 17 59 42 72 56 13 14
26 25 29 25 3 0 16 -17 27 -38z m-737 -11 c35 -28 81 -96 71 -104 -3 -2 -24
-2 -48 1 -38 4 -44 8 -58 40 -8 20 -27 52 -41 71 l-26 34 32 -6 c18 -4 50 -20
70 -36z m1041 -96 c80 -43 78 -49 -10 -23 -61 18 -146 68 -186 110 l-39 40 75
-40 c41 -22 113 -61 160 -87z m-1878 85 c74 -27 215 -109 328 -190 124 -89
406 -267 539 -341 58 -33 186 -93 283 -135 166 -70 346 -153 497 -227 35 -17
65 -37 68 -44 4 -10 -22 -97 -33 -112 -2 -2 -25 10 -52 27 -57 37 -228 119
-437 209 -361 156 -612 295 -890 491 -119 84 -407 242 -441 242 -18 0 -18 14
1 50 28 54 57 60 137 30z m6219 -40 c16 0 19 -8 19 -47 l0 -48 -145 0 -146 0
3 29 c2 24 10 32 43 43 53 19 143 32 179 27 16 -2 37 -4 47 -4z m-6255 -170
c56 -27 206 -119 333 -204 336 -226 428 -278 818 -454 273 -124 372 -175 323
-166 -50 9 -199 66 -481 183 -434 182 -527 222 -603 266 -135 77 -300 198
-392 290 -83 82 -125 135 -108 135 3 0 53 -22 110 -50z m6256 -39 c-10 -68
-12 -69 -99 -54 -43 8 -103 13 -133 11 -57 -3 -60 -1 -60 32 0 29 48 39 180
37 l115 -2 -3 -24z m-76 -152 l32 -14 -18 -42 -18 -41 -43 14 c-23 8 -88 18
-145 22 l-104 7 22 32 c13 18 30 34 38 37 31 10 206 -1 236 -15z m-69 -157
c90 -29 175 -91 232 -170 l21 -30 -45 -27 c-71 -41 -167 -74 -268 -90 -122
-20 -346 -20 -392 -1 -33 14 -35 18 -35 61 0 25 7 62 15 81 31 75 115 155 190
182 51 18 216 14 282 -6z"/>
<path d="M4342 12484 c130 -108 199 -250 202 -415 2 -101 21 -89 33 20 14 141
-75 317 -205 400 -66 42 -84 39 -30 -5z"/>
<path d="M3888 12361 c-107 -35 -209 -110 -268 -196 -58 -85 -43 -88 39 -6
210 207 456 237 631 74 83 -76 113 -141 118 -255 5 -96 17 -115 28 -43 26 179
-51 327 -214 407 -60 30 -75 33 -172 35 -81 2 -118 -1 -162 -16z"/>
<path d="M3330 12260 c-120 -25 -242 -124 -297 -240 -18 -36 -34 -75 -38 -87
-12 -42 10 -23 40 35 16 31 60 87 96 124 83 85 161 124 283 140 50 7 81 15 73
19 -23 13 -110 18 -157 9z"/>
<path d="M4798 11924 c-17 -16 -6 -22 50 -26 77 -5 159 -46 226 -112 63 -61
101 -125 137 -225 30 -86 45 -80 29 11 -24 134 -118 266 -230 323 -41 21 -74
29 -130 33 -41 2 -78 1 -82 -4z"/>
<path d="M4537 11844 c-11 -11 3 -24 27 -24 38 0 122 -49 166 -96 23 -25 55
-73 71 -107 23 -50 29 -57 29 -35 0 43 -35 125 -74 173 -20 24 -59 55 -88 69
-48 24 -116 34 -131 20z"/>
<path d="M3145 11785 c-97 -89 -222 -145 -320 -145 -35 1 -96 18 -157 45 -30
12 -20 -12 15 -39 18 -14 61 -33 95 -41 114 -29 239 12 345 114 59 57 107 122
90 121 -4 -1 -35 -25 -68 -55z"/>
<path d="M4633 11427 c7 -73 53 -172 105 -229 58 -63 121 -92 210 -96 82 -5
98 11 30 28 -65 16 -163 66 -206 105 -41 36 -91 121 -112 190 -21 66 -33 67
-27 2z"/>
<path d="M4995 11260 c13 -49 61 -114 109 -147 82 -56 84 -37 4 40 -41 39 -85
86 -97 102 -21 29 -22 29 -16 5z"/>
<path d="M5210 11111 c0 -5 16 -41 35 -79 20 -38 38 -92 42 -120 7 -66 23 -57
23 14 0 39 -7 68 -25 102 -35 67 -75 111 -75 83z"/>
<path d="M3809 11309 c-80 -12 -129 -46 -129 -90 0 -15 5 -31 11 -35 6 -3 59
-1 117 6 100 12 112 11 191 -9 47 -11 115 -36 152 -55 56 -29 70 -32 79 -21
14 17 3 40 -42 81 -95 88 -257 141 -379 123z"/>
<path d="M3877 10868 c-24 -19 -47 -81 -47 -130 0 -78 61 -144 109 -118 55 29
78 130 47 205 -21 50 -72 70 -109 43z"/>
<path d="M3008 10853 c-44 -51 -52 -144 -18 -201 23 -38 40 -47 75 -38 44 11
70 92 54 166 -17 77 -75 115 -111 73z"/>
<path d="M4955 10644 c-78 -40 -120 -111 -131 -221 -3 -40 -4 -73 -1 -73 3 0
19 25 36 55 34 61 57 69 92 34 24 -24 20 -57 -11 -101 -25 -35 -25 -40 2 -36
32 4 68 63 68 110 0 32 -7 47 -32 72 -18 18 -40 35 -48 38 -12 4 -10 10 10 33
48 52 114 71 140 40 15 -18 30 -11 30 14 0 48 -91 68 -155 35z"/>
<path d="M3385 10281 c-7 -13 27 -31 59 -31 31 0 34 15 7 30 -25 13 -58 13
-66 1z"/>
<path d="M3870 10147 c0 -7 5 -18 11 -24 7 -7 -4 -19 -38 -41 -166 -106 -403
-143 -591 -92 -46 12 -86 20 -89 17 -12 -13 8 -37 46 -57 135 -68 337 -67 527
5 77 29 158 77 179 108 12 17 17 18 30 7 22 -18 39 1 31 35 -10 38 -106 76
-106 42z"/>
<path d="M3360 9751 c0 -34 147 -54 207 -29 25 11 18 13 -72 19 -55 3 -108 10
-117 14 -11 4 -18 3 -18 -4z"/>
</g>
</svg>
