<?xml version="1.0" standalone="no"?>
<!DOCTYPE svg PUBLIC "-//W3C//DTD SVG 20010904//EN"
 "http://www.w3.org/TR/2001/REC-SVG-20010904/DTD/svg10.dtd">
<svg version="1.0" xmlns="http://www.w3.org/2000/svg"
 width="1632.000000pt" height="2604.000000pt" viewBox="0 0 1632.000000 2604.000000"
 preserveAspectRatio="xMidYMid meet">
<metadata>
Created by potrace 1.16, written by Peter Selinger 2001-2019
</metadata>
<g transform="translate(0.000000,2604.000000) scale(0.100000,-0.100000)"
fill="#000000" stroke="none">
<path d="M8065 21285 c-282 -25 -480 -62 -805 -152 -880 -242 -1727 -831
-2310 -1605 -197 -261 -275 -383 -463 -728 -372 -681 -681 -1653 -786 -2470
-19 -146 -26 -216 -50 -500 -24 -281 -20 -259 -57 -300 -95 -105 -174 -428
-155 -630 5 -52 7 -99 4 -106 -4 -11 -87 -62 -268 -161 -346 -191 -784 -487
-1085 -734 -286 -233 -588 -570 -750 -834 -69 -112 -165 -316 -203 -433 -193
-582 -84 -1229 290 -1728 l54 -72 29 -188 c134 -872 323 -1722 523 -2364 143
-457 306 -873 463 -1180 136 -267 216 -379 417 -583 252 -256 555 -463 991
-678 373 -185 951 -385 1421 -493 508 -117 1055 -204 1615 -258 217 -21 1097
-17 1320 5 635 65 1234 193 1789 382 392 134 639 238 1026 432 434 218 670
357 1136 668 659 441 1045 770 1405 1196 285 337 497 743 707 1354 179 518
371 1232 491 1825 119 584 253 1404 282 1725 5 64 16 100 54 185 101 224 167
441 191 630 14 113 14 373 0 483 -28 212 -108 448 -217 639 -81 142 -122 195
-277 355 l-129 132 -23 118 c-28 143 -52 217 -114 348 -94 199 -174 310 -337
471 l-113 112 -26 118 c-113 504 -320 1091 -562 1599 -349 731 -751 1313
-1263 1826 -226 227 -385 368 -601 531 -407 307 -833 545 -1329 741 -367 145
-829 260 -1260 313 -183 22 -814 28 -1025 9z m890 -195 c177 -15 537 -76 720
-122 190 -47 483 -143 685 -222 158 -63 512 -234 655 -316 241 -140 599 -396
795 -569 624 -551 1070 -1130 1449 -1881 207 -409 330 -703 466 -1114 153
-465 249 -905 334 -1538 79 -591 118 -1249 106 -1822 l-7 -348 -34 -14 c-121
-51 -360 -66 -443 -28 l-44 20 -3 335 c-6 656 -61 1332 -159 1938 -29 178
-138 666 -196 878 -134 486 -359 1055 -571 1441 -278 508 -446 757 -735 1092
-389 452 -794 799 -1249 1070 -311 186 -561 302 -899 416 -233 79 -369 115
-590 153 -303 53 -458 66 -790 65 -273 0 -316 -3 -475 -27 -439 -67 -810 -183
-1155 -360 -575 -297 -1010 -678 -1387 -1217 -234 -335 -465 -799 -626 -1255
-201 -572 -321 -1087 -396 -1700 -20 -160 -39 -311 -42 -337 -7 -57 -37 -91
-110 -124 -95 -45 -219 -56 -329 -30 -32 8 -65 22 -72 32 -18 25 -16 115 7
375 56 617 114 930 281 1514 125 435 300 876 503 1270 241 466 527 866 861
1200 746 746 1676 1170 2716 1235 166 10 558 5 734 -10z m-30 -779 c256 -30
550 -93 787 -167 221 -69 551 -216 801 -356 563 -315 1067 -762 1483 -1313
362 -479 616 -942 871 -1583 3 -7 -29 2 -73 21 -44 19 -139 54 -212 78 l-133
44 -50 72 c-78 114 -215 268 -334 378 -327 301 -417 436 -448 669 -18 129 -51
124 -64 -9 -8 -83 10 -171 53 -264 19 -41 34 -76 34 -78 0 -8 -53 34 -129 101
-166 148 -258 289 -268 415 -3 37 0 85 7 111 22 82 24 120 7 120 -56 0 -88
-43 -109 -146 -22 -109 17 -251 106 -383 19 -28 30 -51 25 -51 -17 0 -132 61
-194 103 -93 63 -141 106 -204 182 -86 106 -103 132 -142 229 -19 50 -40 91
-46 93 -28 10 -30 -112 -3 -198 27 -86 68 -155 136 -228 31 -34 52 -61 48 -61
-5 0 -49 8 -99 17 -142 28 -537 25 -710 -5 -383 -66 -652 -180 -936 -398 -114
-88 -308 -284 -398 -405 -54 -71 -71 -86 -110 -100 -89 -31 -288 -127 -396
-192 -299 -177 -605 -436 -847 -717 l-57 -66 -113 -26 c-62 -15 -140 -32 -173
-38 -285 -54 -894 -238 -1370 -415 -189 -70 -610 -239 -714 -286 -86 -40 -263
-111 -266 -107 -1 2 -10 37 -19 78 -10 41 -36 112 -58 158 -40 82 -41 84 -34
160 39 431 187 1134 348 1647 89 281 247 671 362 890 248 472 443 745 755
1056 369 367 827 648 1326 812 166 55 502 134 665 156 80 12 159 23 175 25 81
12 559 -3 720 -23z m1645 -2370 c61 -6 63 -7 30 -15 -19 -4 -79 -26 -133 -47
-104 -41 -200 -62 -383 -81 -123 -13 -140 -18 -131 -41 7 -20 130 -31 246 -22
50 4 91 4 91 0 0 -3 -15 -25 -34 -48 -70 -87 -106 -193 -106 -315 0 -64 3 -76
25 -97 13 -14 29 -25 36 -25 6 0 43 32 83 71 79 79 174 151 231 175 20 8 39
14 40 12 2 -2 -9 -30 -25 -63 -15 -33 -36 -95 -45 -138 -24 -110 -9 -232 40
-334 34 -70 91 -133 120 -133 22 0 19 21 -21 138 -96 281 -24 511 195 624 75
39 91 58 71 83 -21 26 -113 15 -235 -28 -184 -64 -257 -104 -363 -201 l-55
-51 7 35 c21 106 100 216 213 297 104 74 223 111 418 128 199 18 582 -140 870
-359 362 -275 613 -610 739 -988 66 -196 86 -305 93 -498 15 -431 -100 -829
-358 -1230 l-49 -78 -38 14 c-44 16 -172 18 -222 4 -53 -15 -129 -66 -140 -96
-12 -32 2 -62 33 -69 13 -4 43 4 72 17 65 29 161 30 225 1 94 -42 152 -128
153 -228 1 -156 -98 -303 -263 -389 -85 -44 -159 -60 -256 -54 -96 6 -151 29
-222 92 -67 59 -89 59 -150 2 -57 -52 -122 -95 -262 -169 -262 -138 -535 -195
-889 -184 -198 6 -329 26 -565 87 -358 92 -665 234 -939 434 -579 421 -841
961 -711 1461 52 202 111 304 308 533 143 165 207 276 316 547 126 311 245
491 471 710 280 272 567 416 959 484 215 38 364 47 510 32z m-2116 -1161
c-105 -263 -142 -326 -284 -491 -196 -227 -325 -467 -365 -674 -33 -178 -27
-392 16 -551 28 -105 90 -251 131 -314 28 -43 37 -69 43 -120 33 -325 133
-629 356 -1080 157 -320 263 -495 540 -895 477 -691 664 -1072 818 -1665 39
-151 104 -442 99 -445 -2 -1 -39 -15 -82 -30 l-79 -29 -18 23 c-11 13 -51 82
-90 155 -210 384 -270 482 -477 771 -467 652 -1037 1266 -1837 1981 -462 412
-847 739 -1095 930 l-155 119 11 62 c25 140 122 231 479 448 304 185 321 203
743 795 87 122 168 218 156 185 -112 -315 -136 -404 -159 -590 -38 -303 -6
-631 91 -924 66 -202 226 -513 250 -488 4 4 -23 98 -59 210 -130 394 -179 647
-181 937 -2 398 110 791 330 1151 53 86 85 125 153 187 157 143 315 264 489
377 76 49 234 136 239 131 2 -1 -27 -76 -63 -166z m4236 -25 c118 -49 252
-128 272 -160 23 -38 97 -261 143 -431 127 -475 239 -1175 301 -1884 10 -112
18 -348 21 -601 l5 -415 -40 -32 c-59 -47 -92 -120 -92 -203 0 -49 -9 -96 -35
-176 -39 -119 -60 -236 -71 -386 l-6 -98 -109 -89 -109 -89 -137 6 c-219 9
-365 -24 -592 -133 -62 -29 -115 -54 -118 -54 -6 0 75 113 179 251 117 155
211 300 343 529 190 331 265 434 565 784 74 87 139 164 143 173 5 8 6 25 3 39
-5 18 -13 24 -32 24 -30 0 -148 -116 -282 -276 -42 -51 -78 -91 -80 -89 -1 1
9 33 23 71 83 218 172 588 200 824 28 241 39 564 26 746 -10 152 -54 428 -87
556 -19 76 -113 317 -157 404 -41 82 -144 241 -197 304 -26 31 -50 79 -73 145
-19 55 -44 124 -56 153 -12 28 -30 74 -41 102 l-19 49 22 -8 c12 -5 51 -21 87
-36z m-5682 -942 c-63 -87 -163 -227 -224 -312 -60 -85 -123 -165 -140 -179
-19 -15 -121 -54 -265 -102 -476 -157 -981 -358 -1403 -559 -82 -39 -150 -71
-151 -71 -2 0 -5 62 -7 138 -6 161 -23 220 -95 325 -28 40 -43 71 -37 76 17
16 545 239 839 354 334 132 886 315 1195 398 200 53 393 98 399 93 1 -1 -48
-74 -111 -161z m5822 83 c121 -262 180 -554 180 -894 0 -120 0 -120 -51 -253
-56 -151 -181 -399 -266 -528 -287 -440 -651 -756 -1136 -986 -275 -130 -592
-227 -1157 -354 -166 -37 -163 -57 8 -54 310 7 642 84 1031 239 144 58 372
173 503 254 207 129 509 397 657 584 115 146 242 349 332 531 l89 180 -6 -65
c-25 -279 -106 -658 -196 -919 -88 -257 -248 -607 -358 -787 -24 -38 -63 -103
-88 -144 -48 -82 -159 -245 -259 -382 -55 -74 -76 -94 -151 -141 -324 -203
-773 -363 -1172 -418 -128 -18 -584 -18 -710 -1 -136 19 -301 56 -404 89 l-88
28 -84 153 c-125 231 -253 440 -371 607 -58 83 -153 222 -210 310 -58 88 -125
189 -148 225 -67 102 -136 233 -128 241 12 11 243 47 383 59 205 18 736 24
905 10 401 -31 608 -22 844 36 220 54 482 179 642 305 31 25 38 27 49 14 18
-22 89 -60 150 -81 71 -24 211 -24 300 -1 119 31 237 97 322 181 143 141 190
240 192 411 1 113 -9 151 -60 225 l-34 50 77 127 c230 380 340 718 359 1101 4
72 9 132 11 132 2 0 22 -38 43 -84z m1467 -213 c72 -110 148 -272 173 -367 68
-265 76 -700 21 -1047 -27 -168 -76 -402 -100 -475 l-19 -59 -1 140 c-2 295
-52 977 -97 1338 -23 191 -69 505 -80 557 -3 14 -8 34 -10 45 -7 30 48 -35
113 -132z m-9798 -270 c6 -27 16 -111 21 -188 6 -77 15 -157 20 -177 6 -21 33
-63 61 -95 69 -79 94 -160 87 -287 -6 -108 -43 -224 -85 -268 -51 -54 -222
-177 -287 -207 -69 -32 -139 -54 -134 -43 2 4 15 30 29 57 60 113 98 252 114
415 8 81 -11 138 -56 164 -28 17 -39 17 -129 6 -128 -17 -323 -8 -410 18 -127
39 -120 32 -120 114 0 141 46 360 96 460 l14 27 42 -24 c91 -51 249 -74 374
-55 110 17 219 53 284 94 30 20 58 36 62 36 3 0 11 -21 17 -47z m1433 -598
c-52 -55 -101 -136 -125 -206 -3 -10 -34 -21 -94 -33 -118 -24 -172 -50 -273
-132 -84 -69 -397 -290 -423 -300 -12 -4 -15 22 -19 143 -3 81 -7 154 -9 162
-5 19 213 117 651 292 190 76 347 138 349 138 2 1 -24 -28 -57 -64z m8859 -73
c220 -301 308 -498 351 -782 73 -490 -107 -1018 -538 -1574 -87 -113 -87 -113
-98 14 -4 41 -14 98 -22 127 -11 39 -12 68 -5 120 33 242 22 405 -35 519 -34
69 -35 73 -20 101 32 62 97 238 131 351 98 334 165 776 165 1094 0 59 3 108 8
108 4 -1 32 -35 63 -78z m-11054 -88 c85 -18 340 -25 407 -11 l39 8 -7 -78
c-7 -89 -37 -205 -67 -264 -23 -47 -81 -91 -154 -118 -86 -32 -396 -207 -655
-369 -544 -340 -873 -631 -1091 -962 -148 -225 -219 -439 -219 -663 0 -256 70
-460 238 -697 81 -114 309 -347 447 -456 541 -427 1434 -824 2390 -1063 419
-104 926 -187 1370 -222 327 -27 1056 -14 1425 25 150 16 254 8 330 -24 156
-67 300 -181 454 -360 102 -120 227 -282 221 -288 -6 -6 -394 -90 -536 -116
-127 -23 -543 -71 -839 -97 -185 -16 -781 -17 -1030 -1 -505 31 -843 78 -1300
178 -483 106 -811 204 -1265 377 -1102 420 -1940 1006 -2358 1647 -204 314
-298 649 -284 1020 7 174 28 293 83 459 71 213 210 453 392 680 220 274 375
414 795 719 284 208 374 265 842 536 110 63 216 127 235 140 19 14 40 23 47
21 7 -2 47 -11 90 -21z m1158 -331 c7 -81 1 -226 -11 -256 -3 -8 -51 -33 -107
-57 -159 -67 -614 -298 -810 -412 -38 -22 -71 -37 -74 -34 -5 5 -23 366 -19
372 1 1 26 14 56 29 51 26 64 28 190 30 110 1 144 5 186 22 81 32 311 190 399
274 73 70 142 117 172 119 7 0 14 -31 18 -87z m1075 13 c165 -111 790 -645
1300 -1110 278 -254 850 -822 1052 -1046 401 -444 749 -906 965 -1280 197
-341 253 -444 246 -451 -22 -20 -290 -79 -358 -79 l-43 0 -67 108 c-324 515
-761 983 -1264 1352 -81 59 -132 90 -145 88 -34 -5 -22 -39 30 -83 326 -274
703 -639 878 -850 117 -141 292 -372 401 -529 l69 -99 -70 5 c-38 3 -150 1
-249 -3 -251 -10 -428 -56 -645 -164 -119 -60 -159 -88 -248 -170 -60 -55 -65
-58 -135 -66 -39 -4 -130 -8 -202 -8 l-130 -1 -117 110 c-179 169 -314 338
-575 717 -433 630 -784 1295 -1058 2004 -105 270 -141 379 -210 633 -63 233
-145 587 -145 631 0 27 12 39 115 113 64 45 120 82 124 82 5 0 11 -14 15 -30
13 -67 131 -364 206 -517 202 -417 409 -754 687 -1122 243 -321 306 -391 329
-368 7 7 -110 194 -337 537 -240 362 -245 371 -388 627 -185 334 -277 531
-366 778 -62 176 -63 178 -24 206 41 29 116 47 199 48 64 1 67 0 160 -63z
m2525 -221 c207 -167 529 -354 754 -438 l63 -24 -168 -7 c-225 -9 -358 -23
-479 -47 -55 -12 -104 -22 -110 -22 -25 -4 -261 548 -310 726 l-13 48 86 -82
c48 -45 127 -114 177 -154z m-3259 -516 c67 -294 113 -450 224 -749 130 -350
203 -521 387 -900 118 -246 360 -678 488 -874 12 -18 -18 -4 -117 55 -294 176
-795 410 -1103 515 -382 131 -663 190 -1006 214 -320 22 -607 -29 -848 -149
-44 -23 -83 -41 -86 -41 -11 0 -3 32 39 146 70 194 103 266 190 417 157 273
310 482 522 711 l138 149 113 -7 c78 -4 153 -16 245 -40 178 -46 220 -62 451
-174 151 -73 200 -93 209 -84 16 16 -26 60 -121 124 -191 130 -571 268 -738
268 -29 0 -53 4 -53 8 0 32 436 401 822 697 l163 125 17 -103 c9 -57 38 -195
64 -308z m-1452 94 c7 -188 7 -188 -16 -206 -13 -10 -73 -53 -135 -95 -128
-88 -478 -376 -663 -545 l-125 -114 -22 156 c-13 86 -30 192 -38 236 l-15 80
27 23 c199 168 489 370 768 532 88 51 169 99 180 106 11 7 23 13 26 13 3 1 9
-83 13 -186z m691 29 c-17 -15 -94 -82 -170 -148 -77 -67 -196 -173 -265 -237
-79 -73 -128 -110 -132 -103 -4 6 -8 54 -8 107 l0 96 113 64 c136 77 468 248
482 248 6 0 -4 -12 -20 -27z m-672 -434 c14 -177 19 -162 -89 -289 -212 -251
-334 -415 -425 -567 -34 -58 -61 -87 -124 -137 -44 -34 -111 -90 -149 -124
-38 -33 -72 -61 -76 -61 -9 0 -22 82 -51 315 -11 93 -22 173 -25 176 -17 29
875 769 926 769 4 0 10 -37 13 -82z m-1108 -225 c4 -32 18 -141 31 -242 l25
-184 -64 -66 c-163 -170 -357 -466 -423 -645 l-18 -49 -13 39 c-22 64 -43 201
-43 283 0 148 55 336 145 496 54 98 320 422 347 424 4 1 10 -25 13 -56z
m11629 -211 c-1 -199 -2 -210 -27 -276 -34 -86 -82 -152 -149 -204 -157 -119
-339 -148 -540 -85 -83 25 -187 89 -221 136 -20 26 -21 32 -9 140 8 82 21 140
48 217 25 71 39 131 43 185 3 46 10 79 16 77 6 -2 42 -19 80 -37 131 -62 259
-71 453 -31 122 25 195 50 253 85 23 14 37 17 44 10 6 -6 10 -88 9 -217z
m-11519 -588 c19 -132 35 -244 35 -250 0 -7 -36 -55 -81 -109 -101 -122 -165
-217 -218 -323 -23 -45 -45 -82 -50 -82 -13 0 -111 122 -154 192 -29 48 -37
70 -33 92 8 38 117 253 173 341 89 137 282 390 291 380 2 -1 19 -110 37 -241z
m12050 119 c-3 -16 -12 -80 -20 -143 -8 -63 -29 -204 -46 -312 l-32 -197 -132
-148 c-72 -81 -162 -179 -199 -218 l-67 -70 5 80 c3 44 9 132 12 195 6 106 9
119 39 170 52 88 82 152 100 214 13 43 32 75 79 129 98 114 189 228 221 279
34 54 47 61 40 21z m-510 -429 c-34 -102 -81 -170 -195 -285 -181 -181 -340
-299 -408 -299 -22 0 -21 2 16 58 114 167 223 450 257 664 5 36 10 39 89 76
95 45 187 105 231 152 l30 31 3 -160 c2 -150 1 -166 -23 -237z m-925 252 c115
-61 212 -88 338 -94 130 -6 123 3 88 -122 -58 -208 -190 -456 -318 -595 -65
-72 -314 -267 -543 -427 -172 -121 -367 -248 -372 -244 -2 1 15 74 37 162 22
87 61 249 86 359 46 198 139 528 168 595 16 39 105 128 245 246 144 122 185
154 196 154 6 0 40 -15 75 -34z m-10318 -132 c-69 -137 -146 -381 -177 -559
-10 -55 -21 -166 -24 -247 l-6 -148 -84 65 c-107 82 -208 171 -227 200 -14 22
-13 28 22 97 87 174 280 431 427 569 51 48 93 86 95 84 2 -2 -10 -29 -26 -61z
m9646 -109 c-60 -111 -122 -318 -192 -640 -100 -462 -294 -1192 -386 -1460
-102 -295 -272 -695 -400 -941 -319 -614 -747 -1211 -1185 -1650 -99 -100
-190 -186 -201 -192 -19 -10 -30 -5 -85 37 -60 45 -83 71 -217 242 -104 133
-337 519 -447 739 -90 181 -370 711 -458 865 -168 299 -348 540 -524 705 -183
171 -423 300 -560 300 -18 0 -33 4 -33 9 0 14 146 86 245 121 260 91 464 106
775 54 150 -25 306 -79 619 -214 201 -86 240 -98 251 -80 14 21 12 27 -9 47
-48 45 -499 267 -586 289 -31 8 -33 24 -2 24 37 0 336 77 431 110 246 87 543
226 859 402 332 185 522 310 772 512 623 503 677 543 870 636 173 85 344 137
452 139 l41 1 -30 -55z m-899 8 c-264 -302 -531 -563 -722 -707 -140 -105
-378 -258 -579 -372 -194 -111 -558 -289 -567 -277 -4 4 -18 64 -30 133 -61
332 -148 621 -296 982 -7 17 -4 17 34 4 57 -21 246 -62 376 -83 156 -25 600
-25 767 0 306 46 718 179 953 307 50 27 92 49 94 49 1 1 -12 -16 -30 -36z
m-7519 -238 c333 -48 755 -177 1151 -351 359 -158 970 -488 1001 -542 30 -51
334 -469 415 -570 43 -53 129 -150 192 -214 l114 -118 -314 0 c-574 0 -1177
79 -1804 236 -414 104 -888 264 -1245 421 -338 149 -740 362 -754 400 -6 16
10 391 18 413 3 8 10 34 16 57 9 36 19 47 83 88 154 99 313 159 502 190 118
19 465 14 625 -10z m9926 -337 c-4 -90 -9 -178 -13 -196 -10 -56 -483 -513
-743 -716 -114 -90 -289 -211 -294 -205 -2 2 -6 138 -8 301 l-5 296 76 55 c42
30 132 100 201 156 l125 101 60 0 c166 0 312 80 505 274 52 53 96 96 99 96 2
0 1 -73 -3 -162z m458 75 c-42 -223 -116 -586 -128 -632 -17 -62 -41 -98 -137
-206 -39 -44 -99 -111 -132 -149 -58 -68 -60 -69 -54 -35 18 98 67 478 73 569
l7 105 69 75 c39 41 124 135 190 208 66 72 121 132 122 132 1 0 -3 -30 -10
-67z m-504 -607 c-16 -151 -57 -470 -69 -531 -8 -45 -17 -58 -88 -124 -176
-166 -332 -293 -653 -535 -160 -120 -236 -172 -238 -162 -2 9 4 123 12 255 9
132 16 269 16 304 l0 65 143 95 c256 171 544 418 812 696 38 40 71 67 73 61 3
-7 -1 -62 -8 -124z m-1113 -383 c-10 -548 -35 -889 -97 -1323 -16 -113 -36
-272 -45 -355 l-16 -150 -67 -68 c-65 -67 -315 -289 -331 -295 -4 -1 5 68 20
155 32 178 102 658 118 803 27 245 45 662 45 1059 l1 254 80 48 c44 26 127 81
185 122 58 42 107 76 109 76 2 1 1 -146 -2 -326z m-11017 -254 c52 -41 122
-95 156 -119 l61 -44 6 -166 c8 -189 22 -346 41 -437 8 -35 11 -63 7 -63 -12
0 -257 188 -351 269 -52 46 -104 91 -116 100 -16 14 -28 54 -53 182 -55 273
-111 573 -111 593 0 13 41 -21 133 -110 72 -72 175 -163 227 -205z m12381 70
c-33 -134 -79 -304 -101 -378 l-41 -133 -81 -89 c-121 -132 -438 -429 -458
-429 -4 0 -1 30 6 68 15 79 51 374 60 483 l5 76 47 36 c128 97 503 476 596
600 11 16 22 24 24 19 2 -6 -24 -120 -57 -253z m-1863 -436 c-13 -27 -161
-138 -247 -185 l-48 -26 82 251 c46 139 102 320 125 402 34 120 47 154 69 172
l26 23 3 -306 c2 -231 -1 -312 -10 -331z m-9808 -112 c230 -132 613 -316 908
-436 l107 -44 6 -58 c3 -32 4 -85 1 -118 -2 -33 1 -170 7 -304 7 -134 10 -245
8 -248 -7 -6 -221 79 -377 151 -294 136 -544 288 -840 511 l-138 104 -11 63
c-13 77 -47 387 -56 520 l-7 98 133 -84 c74 -46 190 -116 259 -155z m10930
-123 c-65 -502 -157 -934 -291 -1369 l-29 -97 -161 -137 c-174 -148 -339 -278
-346 -271 -2 2 14 73 36 158 99 376 182 917 207 1341 l6 108 67 43 c74 48 368
268 463 347 33 28 62 48 65 45 3 -2 -5 -78 -17 -168z m-1130 -64 c-15 -199
-40 -453 -48 -493 -7 -30 -27 -49 -137 -133 -170 -129 -372 -266 -515 -349
-63 -37 -116 -66 -118 -64 -1 1 18 37 43 80 82 138 293 566 358 725 l64 155
84 48 c46 27 127 77 179 112 52 35 96 62 98 61 1 -2 -2 -66 -8 -142z m-10476
-126 c50 -39 128 -95 173 -126 91 -60 85 -49 103 -202 21 -172 137 -693 181
-807 9 -24 8 -24 -33 9 -24 18 -127 116 -230 217 -186 181 -188 185 -207 250
-38 128 -120 458 -155 626 -20 94 -39 181 -42 194 -4 20 6 14 57 -33 34 -32
103 -89 153 -128z m12120 70 c-56 -194 -154 -492 -205 -625 l-62 -158 -195
-197 c-108 -109 -197 -196 -198 -195 -1 1 30 133 71 292 40 160 81 334 91 388
l18 97 100 83 c56 45 166 146 246 224 80 78 146 142 147 143 1 0 -5 -24 -13
-52z m-10055 -369 l234 -78 -2 -213 c-3 -428 37 -1012 101 -1446 11 -79 18
-145 16 -148 -7 -6 -309 98 -389 134 l-66 30 -12 84 c-7 45 -25 162 -41 258
-57 344 -110 989 -110 1339 0 123 1 133 18 126 9 -4 122 -42 251 -86z m-1557
-75 c323 -247 691 -447 1085 -589 70 -26 130 -48 131 -50 2 -2 10 -81 18 -177
8 -95 20 -227 28 -293 8 -66 12 -122 10 -124 -18 -19 -695 305 -904 431 -95
58 -311 200 -351 231 -19 15 -64 201 -115 477 -19 102 -34 187 -34 189 0 4 15
-7 132 -95z m2032 -69 c223 -63 558 -135 879 -190 110 -18 200 -35 202 -37 6
-7 12 -718 6 -718 -24 0 -315 56 -466 90 -175 39 -265 62 -587 150 l-156 44
-6 90 c-10 140 -12 606 -3 606 4 0 63 -16 131 -35z m4386 -185 c101 -175 268
-492 275 -522 6 -24 4 -28 -15 -28 -13 0 -136 -22 -274 -49 -251 -50 -515 -91
-580 -91 l-34 0 -6 73 c-3 39 -10 169 -16 287 -7 118 -15 239 -19 268 -4 29
-4 55 0 57 4 3 90 21 191 40 100 19 224 46 273 59 135 37 129 40 205 -94z
m3470 3 c-14 -98 -74 -439 -97 -557 l-18 -90 -110 -84 c-244 -187 -473 -325
-847 -510 -196 -98 -497 -226 -507 -217 -1 2 39 52 91 112 164 188 334 417
532 716 l91 138 160 91 c280 160 457 278 625 416 47 39 86 69 88 67 2 -2 -2
-39 -8 -82z m-4231 -180 c27 -366 52 -1245 35 -1256 -17 -10 -326 -39 -433
-41 l-106 -1 -6 205 c-19 610 -30 871 -40 1013 -7 86 -10 159 -8 161 2 3 117
19 254 36 138 18 252 34 254 36 2 2 12 4 21 4 15 0 19 -21 29 -157z m-2294
107 c83 -11 201 -23 263 -26 l112 -7 0 -272 c0 -150 3 -314 7 -365 l6 -93 -79
6 c-95 7 -332 34 -394 45 l-45 8 -6 129 c-10 204 -22 595 -18 595 2 0 72 -9
154 -20z m1644 -262 c6 -128 14 -279 18 -335 l6 -103 -37 0 c-21 0 -90 -7
-154 -15 -226 -28 -470 -46 -728 -52 l-261 -6 -6 134 c-4 74 -10 239 -13 368
l-7 233 119 -8 c153 -10 758 -7 889 4 55 5 114 10 131 11 l31 1 12 -232z
m5271 -199 c-22 -118 -66 -310 -98 -427 l-57 -213 -70 -51 c-151 -111 -818
-498 -858 -498 -4 0 -6 8 -3 18 16 51 57 282 77 425 l22 164 46 28 c92 57 409
287 538 390 73 59 201 168 285 245 84 76 154 137 155 136 2 -1 -15 -99 -37
-217z m-10528 33 c163 -148 376 -308 495 -373 28 -15 30 -21 42 -115 19 -145
68 -437 90 -526 10 -43 16 -78 14 -78 -9 0 -235 142 -369 231 l-132 88 -30 73
c-91 219 -292 814 -292 865 0 10 21 -6 53 -40 28 -30 86 -87 129 -125z m11432
86 c-226 -371 -382 -567 -695 -875 -106 -103 -349 -316 -383 -335 -16 -9 -18
-8 -12 8 4 11 28 82 52 159 75 232 59 209 234 341 223 167 409 327 620 533
102 99 186 180 188 180 2 1 0 -5 -4 -11z m-11037 -115 c59 -41 95 -73 97 -86
9 -45 14 -137 8 -137 -18 0 -162 105 -176 129 -8 13 -45 147 -46 164 0 10 6 7
117 -70z m2236 -193 c675 -176 1410 -252 2039 -210 178 12 516 47 571 60 27 6
39 5 42 -3 2 -7 6 -144 10 -304 l6 -293 -104 0 c-58 0 -246 -9 -418 -21 -873
-58 -1669 34 -2436 282 -111 36 -122 42 -127 67 -9 44 -34 307 -41 439 l-7
121 156 -49 c86 -27 225 -67 309 -89z m4373 58 c4 -12 8 -72 9 -133 1 -60 5
-165 10 -232 l8 -122 -29 -12 c-146 -56 -934 -263 -948 -248 -3 2 -6 141 -7
309 l-2 305 164 17 c159 17 427 63 654 113 137 30 132 29 141 3z m-6176 -123
l95 -50 23 -180 c50 -402 101 -648 186 -905 25 -74 44 -135 42 -137 -4 -4
-211 116 -288 167 -62 41 -69 49 -84 99 -22 77 -88 366 -113 496 -21 112 -91
586 -91 617 0 15 11 11 68 -20 37 -20 110 -59 162 -87z m6412 -291 c198 -343
353 -561 509 -716 196 -195 280 -187 530 47 l133 124 115 37 c64 20 153 51
199 69 50 21 82 29 82 22 0 -22 -59 -352 -79 -444 -40 -186 -11 -154 -258
-280 -313 -160 -623 -285 -948 -383 -142 -43 -465 -123 -471 -117 -1 1 8 63
22 138 60 344 79 650 70 1124 -5 296 -11 410 -32 555 -3 25 -3 42 0 39 4 -4
61 -100 128 -215z m-6070 125 c73 -33 185 -78 248 -99 93 -32 116 -43 122 -62
13 -40 56 -233 53 -236 -7 -8 -500 252 -529 278 -13 13 -42 180 -32 180 3 0
65 -27 138 -61z m8253 -256 c-3 -16 -17 -100 -31 -188 -42 -255 -128 -570
-253 -930 l-48 -140 -82 -47 c-120 -70 -431 -231 -431 -223 0 3 25 67 55 140
149 363 250 754 271 1048 4 51 9 97 13 104 5 10 479 256 503 261 4 1 5 -10 3
-25z m-8258 -44 c229 -133 511 -258 798 -356 314 -106 547 -158 889 -198 154
-19 186 -14 186 28 0 45 -28 56 -186 77 -231 31 -541 90 -572 109 -8 5 -20 65
-31 162 -11 85 -18 155 -17 157 2 1 17 -5 35 -14 65 -32 270 -97 461 -145 158
-40 397 -85 668 -125 31 -5 32 -7 32 -52 0 -186 97 -925 156 -1193 l6 -25
-194 33 c-258 45 -676 162 -933 262 l-50 19 -16 86 c-12 68 -13 86 -3 86 7 0
84 -16 171 -35 226 -49 511 -89 529 -74 18 15 18 63 0 78 -8 7 -88 25 -178 41
-299 52 -708 150 -920 221 -198 66 -625 251 -753 326 l-50 29 -41 165 c-38
149 -86 389 -78 389 1 0 42 -23 91 -51z m5876 -186 c4 -97 4 -230 0 -295 l-6
-117 -51 -15 c-516 -150 -947 -236 -1330 -266 -165 -13 -784 -13 -986 0 -141
9 -500 46 -506 52 -3 4 -21 226 -30 360 l-6 106 273 6 c1284 25 1254 24 1529
61 228 31 697 148 944 234 78 27 146 50 152 50 7 1 13 -58 17 -176z m3241 -18
c-19 -61 -51 -152 -71 -202 -35 -92 -36 -94 -117 -156 -44 -35 -128 -97 -186
-139 -172 -124 -658 -433 -667 -424 -2 2 30 104 71 227 41 123 77 240 81 260
6 33 12 39 53 54 119 44 507 260 747 416 66 43 121 77 122 75 1 -1 -14 -51
-33 -111z m-9963 -58 c70 -47 276 -175 327 -203 2 -1 16 -66 32 -145 25 -120
52 -229 87 -344 9 -27 -113 84 -200 183 -95 107 -218 295 -288 438 -56 115
-64 134 -55 134 2 0 46 -28 97 -63z m3394 -76 c55 -5 148 -13 208 -16 l107 -7
0 -31 c0 -195 66 -877 110 -1142 17 -104 17 -105 -32 -100 -24 3 -111 12 -195
20 -235 23 -204 0 -241 188 -44 222 -57 309 -87 547 -22 175 -55 505 -55 549
0 10 10 12 43 7 23 -3 87 -10 142 -15z m-2125 -477 l114 -51 13 -79 c6 -43 11
-80 9 -81 -5 -5 -205 65 -312 111 l-110 46 -29 98 c-15 53 -30 106 -33 116 -4
15 20 5 114 -45 65 -35 171 -86 234 -115z m5436 -16 c-7 -142 -25 -290 -56
-483 -31 -188 -24 -172 -83 -185 -120 -26 -839 -93 -850 -80 -2 3 0 109 5 235
5 127 8 269 6 318 -2 48 -1 87 2 87 3 0 84 14 180 31 232 40 646 147 750 192
19 8 39 16 44 16 5 1 6 -54 2 -131z m-6111 46 c161 -104 452 -238 685 -314
l144 -47 37 -169 c21 -93 49 -203 63 -244 14 -41 26 -78 26 -82 0 -21 -305
124 -511 242 -79 45 -187 113 -240 151 -84 59 -103 79 -149 150 -59 91 -90
163 -115 259 -9 36 -18 73 -21 83 -8 25 4 21 81 -29z m1113 -189 c278 -88 244
-66 259 -170 26 -185 86 -464 127 -587 24 -71 39 -128 35 -128 -14 0 -325 109
-379 133 l-55 25 -39 98 c-47 120 -97 318 -131 517 -30 176 -30 181 -10 173 9
-3 95 -31 193 -61z m2221 40 c152 -32 624 -65 930 -65 l123 0 -7 -232 c-4
-128 -10 -264 -14 -303 l-6 -70 -120 -12 c-251 -25 -789 -42 -862 -27 -28 6
-29 8 -41 92 -6 48 -24 186 -40 307 -40 294 -43 325 -38 325 3 0 36 -7 75 -15z
m1688 -327 c-7 -389 -39 -711 -93 -939 l-16 -67 -41 -6 c-23 -3 -135 -8 -249
-12 -161 -5 -208 -4 -208 6 0 6 7 66 15 133 25 209 54 797 55 1098 l0 56 183
7 c142 6 314 22 356 35 2 0 1 -140 -2 -311z m2678 178 c-53 -146 -99 -262
-149 -377 l-47 -106 -127 -61 c-518 -245 -1214 -456 -1847 -561 -160 -27 -497
-72 -502 -68 -2 2 6 42 17 88 22 95 45 245 56 364 11 129 7 125 119 125 278 0
808 69 1155 151 404 95 1046 346 1290 503 30 20 58 36 62 36 4 0 -8 -42 -27
-94z m-6127 -320 c74 -37 475 -155 702 -206 225 -51 532 -98 795 -122 283 -26
1003 -16 1244 18 l44 7 -7 -129 c-7 -117 -26 -311 -42 -423 l-7 -43 -171 6
c-358 14 -838 58 -1111 101 -49 8 -142 21 -205 30 -335 48 -1107 228 -1147
268 -22 23 -142 441 -143 500 0 11 18 9 48 -7z"/>
<path d="M11610 17340 c-69 -27 -177 -34 -257 -15 -37 9 -127 19 -199 22 -155
7 -201 -4 -294 -73 -109 -80 -152 -195 -110 -293 13 -28 26 -51 31 -51 4 0 13
26 20 58 24 113 84 194 179 243 37 19 60 23 135 22 50 0 132 -8 184 -18 113
-21 221 -15 281 15 38 20 90 76 90 98 0 15 -4 14 -60 -8z"/>
<path d="M9190 16915 c-71 -16 -113 -50 -108 -89 3 -19 9 -21 58 -19 30 1 104
3 163 4 115 1 141 11 135 52 -9 57 -119 81 -248 52z"/>
<path d="M9000 16317 c-19 -6 -61 -36 -92 -67 -48 -48 -60 -68 -79 -129 -25
-85 -22 -153 11 -207 70 -112 206 -111 309 2 180 196 77 472 -149 401z"/>
<path d="M11047 16082 c-28 -31 -20 -51 56 -125 41 -40 88 -98 106 -129 35
-62 56 -72 86 -38 22 24 15 68 -21 137 -33 62 -47 77 -118 130 -64 47 -85 52
-109 25z"/>
<path d="M9512 15729 c-76 -16 -135 -80 -149 -162 -12 -76 48 -182 99 -175 27
4 29 19 11 72 -19 57 -16 91 11 123 22 25 31 28 84 28 45 0 65 -5 81 -19 20
-18 22 -18 41 -1 35 32 25 74 -25 105 -41 25 -110 38 -153 29z"/>
<path d="M10666 15505 c-55 -20 -106 -64 -143 -125 -68 -112 -66 -236 6 -313
32 -34 45 -40 89 -45 83 -8 119 4 177 59 73 69 108 145 108 234 0 77 -14 113
-60 157 -51 48 -105 59 -177 33z"/>
<path d="M9146 15075 c-29 -44 4 -124 81 -197 72 -66 120 -89 231 -108 81 -14
208 16 235 54 9 14 0 55 -18 72 -17 18 -34 18 -78 -1 -52 -21 -152 -19 -205 5
-69 31 -102 59 -139 119 -55 87 -79 99 -107 56z"/>
<path d="M11883 14406 c-121 -39 -215 -133 -201 -203 6 -31 35 -26 92 17 117
85 189 107 262 79 50 -19 93 7 78 46 -10 26 -89 65 -140 70 -28 3 -68 -1 -91
-9z"/>
<path d="M11327 10438 c-246 -480 -437 -761 -678 -998 -76 -75 -139 -144 -139
-153 0 -13 9 -17 34 -17 24 0 50 13 97 49 76 58 212 197 292 298 168 213 416
655 520 928 34 89 35 115 2 115 -7 0 -65 -100 -128 -222z"/>
</g>
</svg>
