<?xml version="1.0" standalone="no"?>
<!DOCTYPE svg PUBLIC "-//W3C//DTD SVG 20010904//EN"
 "http://www.w3.org/TR/2001/REC-SVG-20010904/DTD/svg10.dtd">
<svg version="1.0" xmlns="http://www.w3.org/2000/svg"
 width="796.000000pt" height="1351.000000pt" viewBox="0 0 796.000000 1351.000000"
 preserveAspectRatio="xMidYMid meet">
<metadata>
Created by potrace 1.16, written by Peter Selinger 2001-2019
</metadata>
<g transform="translate(0.000000,1351.000000) scale(0.100000,-0.100000)"
fill="#000000" stroke="none">
<path d="M4315 13048 c-16 -6 -40 -20 -53 -31 -21 -19 -27 -20 -80 -9 -295 60
-564 32 -852 -91 -235 -100 -339 -212 -467 -500 -25 -56 -48 -105 -52 -109 -3
-4 -82 -11 -176 -17 -303 -18 -453 -67 -592 -195 -135 -123 -149 -299 -31
-402 77 -67 231 -136 338 -150 l48 -6 -5 -93 c-7 -112 2 -175 28 -209 26 -33
44 -25 76 38 l27 51 7 -54 c4 -29 15 -74 25 -99 14 -37 15 -47 4 -50 -27 -9
-59 -51 -70 -90 -6 -23 -15 -44 -20 -47 -15 -9 -12 -63 3 -72 9 -5 18 -50 25
-124 19 -185 55 -266 137 -310 l45 -24 0 -88 c0 -106 44 -295 89 -384 102
-201 315 -410 526 -516 69 -34 120 -47 228 -55 l92 -7 3 -33 c3 -32 3 -32 -35
-26 -49 7 -145 -17 -242 -62 -94 -43 -133 -73 -178 -135 -19 -28 -69 -75 -111
-106 -131 -99 -196 -191 -414 -583 -301 -541 -289 -513 -245 -578 l25 -39
-137 -274 c-152 -302 -180 -383 -189 -534 -10 -196 85 -390 229 -466 39 -21
57 -24 159 -24 111 0 118 1 185 34 100 49 207 159 265 271 35 69 45 81 51 65
4 -11 27 -64 50 -119 l42 -98 -6 -242 c-7 -246 -25 -480 -53 -686 -21 -151
-16 -211 20 -249 l27 -28 -66 -168 c-79 -199 -184 -446 -290 -680 -285 -630
-424 -988 -484 -1246 -51 -218 -247 -861 -343 -1126 -28 -77 -32 -83 -57 -83
-59 0 -89 -36 -152 -180 -32 -74 -59 -149 -59 -166 0 -17 11 -48 25 -68 l25
-37 -33 -35 c-29 -32 -40 -37 -102 -44 -39 -5 -88 -14 -110 -21 -54 -18 -260
-14 -375 6 -50 8 -137 29 -193 46 -84 25 -121 31 -208 32 -104 1 -108 1 -181
-36 -118 -58 -224 -178 -258 -293 -12 -39 -11 -45 21 -105 47 -90 202 -241
364 -357 146 -104 362 -216 590 -305 77 -31 223 -91 325 -135 361 -155 601
-213 689 -167 31 16 39 29 129 235 71 163 82 195 126 380 37 151 61 229 92
293 18 37 19 38 59 30 116 -22 149 -1 220 141 62 127 72 169 57 250 l-12 66
111 232 c219 457 296 649 355 883 14 55 41 130 60 167 19 37 40 96 47 130 16
75 50 143 127 258 31 47 148 229 260 405 111 176 215 340 231 365 l28 45 27
-60 c14 -33 64 -155 109 -271 119 -301 289 -696 337 -784 112 -204 153 -246
493 -501 344 -257 718 -537 753 -564 28 -23 32 -31 32 -76 0 -65 18 -105 71
-155 58 -55 177 -144 206 -155 39 -15 86 -10 122 12 27 16 36 18 43 7 63 -94
70 -259 17 -448 -28 -105 -56 -146 -155 -236 -99 -90 -137 -141 -165 -221 -33
-97 -21 -232 31 -349 24 -55 71 -80 181 -94 307 -38 609 31 821 189 118 88
233 255 307 446 39 101 107 268 205 503 99 240 116 296 116 389 0 85 -16 121
-72 163 -160 119 -280 200 -438 295 l-185 112 3 55 c3 36 -2 66 -12 85 -24 47
-221 230 -262 243 -21 7 -58 10 -85 7 l-49 -6 -74 82 c-40 45 -136 152 -212
237 -189 212 -245 267 -342 334 -88 62 -102 79 -102 123 0 35 -32 88 -76 128
l-33 30 -16 165 c-9 91 -29 266 -46 390 -27 196 -32 271 -39 575 -9 353 -19
496 -44 615 -20 93 -17 96 132 90 231 -9 615 -4 692 9 326 56 492 156 588 354
24 48 48 87 55 87 7 0 35 11 64 24 109 51 187 155 217 288 47 206 46 639 0
918 -33 193 -70 246 -219 315 l-92 43 -22 119 c-12 65 -30 150 -40 190 l-19
72 44 26 c25 14 57 45 72 67 24 37 27 51 26 117 -1 102 -39 202 -204 536 -135
273 -182 346 -299 464 -137 138 -276 178 -696 202 -115 6 -184 14 -191 22 -6
7 -24 47 -39 91 -51 144 -150 258 -250 288 -64 19 -377 16 -446 -5 -109 -33
-209 -133 -239 -242 -7 -26 -19 -49 -27 -52 -8 -3 -33 2 -57 11 -40 15 -45 21
-56 63 -6 26 -14 84 -17 130 l-6 84 29 -11 c16 -7 52 -12 80 -13 58 -1 98 19
116 59 11 24 14 24 82 18 80 -7 140 5 180 37 31 25 33 42 5 77 l-21 27 85 6
c106 7 196 47 212 93 10 30 11 29 -57 77 -21 16 -22 19 -10 53 16 44 104 195
114 196 4 0 8 -10 10 -21 2 -12 12 -28 24 -36 18 -12 24 -11 46 6 14 11 36 44
49 73 20 44 24 70 24 148 0 88 -3 100 -33 157 l-32 63 40 20 c90 46 150 122
150 188 0 44 -20 56 -69 41 -56 -17 -107 0 -166 54 l-46 42 21 90 c69 286 76
577 20 803 -25 96 -113 276 -178 362 -114 151 -329 329 -522 433 -82 44 -86
48 -98 92 -28 106 -151 170 -257 133z m114 -78 c32 -9 81 -45 81 -60 0 -3 -41
8 -91 24 -67 22 -86 32 -73 37 27 11 44 10 83 -1z m-314 -40 c186 -32 381
-106 453 -173 41 -38 82 -123 109 -224 35 -131 36 -292 4 -483 -22 -134 -76
-359 -89 -372 -4 -4 -90 45 -192 108 -200 124 -505 280 -663 339 -240 88 -488
142 -704 152 -73 3 -133 10 -133 16 0 11 32 75 107 216 38 69 78 127 122 174
58 62 80 76 196 132 218 106 328 133 542 134 89 1 168 -5 248 -19z m589 -227
c106 -64 208 -145 312 -248 153 -153 238 -305 281 -505 26 -125 24 -400 -6
-574 -12 -72 -23 -132 -26 -134 -2 -2 -79 48 -172 111 -92 62 -235 153 -317
201 -139 82 -148 89 -143 114 2 15 23 97 45 182 56 210 72 311 72 451 0 148
-20 244 -75 355 -22 46 -39 84 -37 84 3 0 32 -17 66 -37z m-1524 -522 c420
-60 717 -176 1185 -464 161 -99 160 -98 142 -108 -31 -18 -208 -31 -337 -26
-242 11 -401 69 -700 257 -387 243 -583 313 -885 314 -207 1 -326 -34 -431
-127 -89 -79 -97 -151 -8 -77 158 132 393 171 655 109 l94 -22 -38 -13 c-63
-22 -169 -81 -229 -129 -73 -57 -133 -132 -171 -215 -17 -36 -31 -66 -32 -67
-2 -4 -148 35 -192 51 -102 36 -185 105 -207 171 -26 73 10 147 109 222 124
94 258 132 500 142 184 7 422 -1 545 -18z m5 -275 c72 -40 173 -101 225 -136
52 -34 135 -82 184 -107 l90 -45 -40 -25 c-102 -63 -264 -129 -299 -121 -13 2
-11 9 10 38 42 56 75 126 82 175 8 59 -9 60 -91 1 -85 -61 -211 -122 -303
-147 -100 -28 -213 -23 -292 11 l-54 24 51 17 c65 22 124 63 183 126 84 90 93
137 12 62 -100 -93 -179 -136 -276 -149 -33 -5 -62 -11 -65 -15 -12 -12 30
-76 67 -102 l40 -28 -7 -65 c-4 -36 -6 -111 -5 -167 2 -115 -6 -126 -50 -73
-34 40 -50 122 -41 210 6 68 6 70 -16 70 -29 0 -84 -34 -109 -68 l-20 -27 -1
28 c0 59 33 185 66 247 95 181 317 339 479 340 45 0 66 -9 180 -74z m617 -345
c99 -42 208 -62 376 -68 l164 -6 -5 -31 c-14 -89 39 -227 120 -316 43 -47 53
-65 62 -115 6 -32 10 -59 8 -61 -1 -1 -39 3 -85 9 l-82 11 -7 40 c-9 56 -48
95 -113 113 -69 19 -434 29 -565 15 -147 -15 -196 -51 -210 -153 -6 -46 -8
-47 -32 -38 -13 5 -53 9 -89 9 l-64 0 0 31 c0 51 -29 98 -73 121 -34 17 -72
22 -234 31 -106 6 -193 14 -193 18 0 4 25 23 57 43 68 43 146 60 230 53 59 -6
64 -5 79 18 15 23 15 27 0 50 -24 36 -61 48 -136 42 -78 -5 -138 -33 -197 -90
l-43 -41 0 34 c0 19 3 65 6 101 l7 66 97 -5 c85 -4 110 -1 191 22 51 15 122
42 156 60 35 19 63 32 63 29 0 -3 -20 -28 -45 -56 -48 -56 -53 -68 -31 -86 68
-57 369 25 491 133 22 19 43 35 47 36 3 0 26 -8 50 -19z m907 -68 c238 -129
525 -332 551 -391 29 -64 105 -120 193 -143 26 -6 47 -15 47 -20 0 -16 -92
-69 -119 -69 -83 -1 -97 -31 -48 -103 63 -92 80 -140 75 -223 -3 -70 -15 -105
-26 -75 -3 8 -20 30 -38 50 -42 46 -62 36 -81 -39 -7 -30 -32 -86 -55 -125
-68 -116 -78 -138 -78 -173 0 -38 25 -92 42 -92 9 0 9 -3 -1 -12 -9 -9 -53
-13 -157 -12 l-144 1 0 -27 c0 -14 11 -48 24 -73 12 -26 21 -49 18 -52 -15
-15 -131 -3 -186 20 -85 35 -97 22 -70 -72 6 -21 3 -23 -34 -23 -50 0 -92 15
-92 33 0 8 27 56 60 108 33 52 70 113 83 137 19 38 24 42 47 36 99 -27 165
-22 242 17 57 29 177 151 211 215 104 197 54 456 -102 521 -41 17 -170 19
-200 3 -17 -9 -36 -8 -84 4 -34 8 -81 17 -104 21 -58 9 -70 22 -78 83 l-7 52
29 -17 c29 -16 63 -13 63 6 0 6 -26 27 -57 47 -70 44 -127 96 -159 146 -33 51
-64 149 -64 202 0 44 1 45 38 51 20 4 60 13 87 20 76 19 82 18 174 -32z m-555
-433 c104 -13 111 -24 109 -163 -2 -128 -19 -267 -39 -315 -18 -45 -46 -53
-209 -59 -158 -6 -347 10 -381 32 -47 30 -84 188 -87 369 -2 118 4 127 100
136 101 11 428 11 507 0z m-973 -29 c17 -21 19 -41 19 -185 0 -184 -7 -217
-54 -272 l-33 -38 -173 -4 -173 -4 7 48 c14 99 25 330 19 407 l-6 79 187 -3
c183 -4 188 -5 207 -28z m-467 -3 c3 -13 6 -35 6 -50 0 -27 -2 -28 -52 -28
-75 0 -98 8 -98 34 0 44 29 64 96 65 35 1 43 -3 48 -21z m-31 -134 l37 -7 0
-61 c0 -67 -24 -264 -33 -273 -14 -14 -40 11 -62 59 -23 50 -36 116 -50 236
l-6 52 38 0 c21 0 55 -3 76 -6z m1879 -58 c13 -19 9 -127 -8 -192 -28 -114 -6
-137 89 -90 68 33 123 90 167 173 43 84 87 113 169 113 51 0 57 -3 96 -43 53
-55 69 -111 63 -214 -6 -101 -42 -179 -115 -250 -112 -110 -203 -134 -295 -80
-26 15 -51 27 -57 27 -6 0 -29 -37 -52 -82 -23 -46 -67 -121 -99 -168 -89
-131 -90 -134 -90 -257 1 -132 20 -244 54 -319 l26 -57 -21 -45 c-32 -66 -219
-251 -306 -301 -125 -73 -208 -104 -299 -109 -108 -6 -180 15 -223 63 -29 33
-31 41 -31 110 0 99 7 115 31 76 10 -17 26 -31 34 -31 35 0 41 69 19 221 l-6
46 52 13 c143 34 388 151 466 222 59 54 89 101 80 124 -9 23 -24 17 -110 -39
-161 -106 -271 -158 -419 -201 -249 -72 -400 -48 -592 94 -257 190 -406 448
-417 718 l-3 84 155 2 c85 2 166 6 180 9 22 6 28 1 51 -36 38 -63 127 -103
183 -81 26 10 18 23 -29 45 -59 28 -105 81 -105 120 0 22 13 44 49 82 56 60
71 86 71 121 0 30 -14 34 -30 9 -8 -13 -9 0 -4 52 10 105 16 115 65 115 53 0
108 -26 114 -54 2 -11 7 -46 10 -76 12 -108 46 -201 90 -246 36 -37 48 -43
111 -54 45 -7 154 -10 295 -8 216 3 226 4 266 27 29 16 50 39 63 66 20 42 50
208 50 282 0 72 -1 72 108 50 53 -11 100 -24 104 -31z m156 -12 c37 -6 42 -9
36 -28 -12 -42 -95 -156 -113 -156 -3 0 -6 45 -6 100 0 96 1 101 20 96 11 -3
39 -8 63 -12z m666 -1148 c61 -39 103 -95 135 -181 33 -89 33 -90 -22 -88 -27
1 -51 3 -53 5 -2 3 -8 29 -14 58 -16 84 -51 134 -114 165 -52 26 -59 26 -203
23 -146 -3 -151 -4 -186 -31 -37 -28 -46 -50 -64 -147 -8 -43 -10 -45 -38 -41
-68 8 -79 34 -46 107 27 58 75 109 128 135 58 28 141 37 299 34 121 -3 122 -3
178 -39z m-124 -114 c37 -18 80 -87 80 -128 0 -20 -7 -23 -57 -30 -118 -14
-343 15 -343 45 0 21 18 82 29 99 21 34 231 44 291 14z m-601 -178 l49 -16
-117 -116 c-127 -127 -204 -224 -285 -360 -68 -117 -226 -454 -266 -569 l-32
-92 -47 -6 c-25 -4 -58 -11 -72 -16 -58 -22 -109 -104 -109 -174 0 -21 -9 -48
-22 -65 -17 -24 -21 -41 -19 -87 1 -32 2 -62 2 -68 0 -5 -8 -31 -18 -57 -17
-45 -17 -51 -2 -93 14 -38 15 -51 4 -81 -14 -42 -5 -110 21 -148 22 -34 107
-89 185 -121 73 -29 90 -46 209 -215 137 -194 336 -370 418 -370 15 0 44 -18
75 -46 138 -124 380 -282 623 -406 l162 -83 11 -85 c6 -47 24 -170 40 -275 15
-104 26 -195 24 -202 -11 -29 -332 -130 -579 -182 -214 -45 -368 -62 -620 -68
-405 -10 -761 42 -1075 157 -135 49 -125 15 -95 311 40 398 50 659 42 1150
l-7 435 26 14 c42 23 75 88 75 149 0 29 5 61 11 72 5 11 11 37 11 59 0 37 2
39 44 49 101 26 152 118 141 254 -10 122 -55 183 -154 208 -66 17 -69 26 -50
129 31 159 133 448 238 675 l33 70 6 -62 c8 -76 23 -99 91 -146 163 -111 379
-84 629 81 145 95 296 261 315 347 17 76 12 73 84 49z m351 -69 c103 -26 150
-43 150 -55 0 -3 -18 -17 -41 -29 -97 -55 -286 -238 -404 -391 -116 -151 -265
-410 -350 -610 -20 -46 -38 -86 -40 -88 -4 -5 -197 58 -207 67 -16 14 76 249
166 427 129 251 224 389 370 538 79 80 202 166 239 166 10 0 63 -11 117 -25z
m940 -30 c342 -30 408 -51 525 -167 77 -78 193 -245 255 -368 114 -228 230
-514 230 -569 0 -35 -36 -91 -58 -91 -14 0 -24 24 -51 128 -58 218 -131 422
-197 556 -74 147 -240 328 -352 383 -53 26 -66 28 -177 28 -113 0 -123 -2
-168 -28 -75 -44 -163 -142 -208 -231 -42 -84 -47 -111 -26 -141 13 -16 21 -8
89 96 72 109 153 199 180 199 22 0 144 -134 186 -205 104 -178 195 -541 242
-965 11 -107 27 -244 35 -305 24 -181 47 -434 40 -445 -3 -5 -42 -10 -85 -10
l-79 0 -11 58 c-26 126 -119 396 -191 554 -27 59 -49 115 -49 124 0 9 10 30
22 47 32 45 27 82 -24 172 -25 44 -88 157 -140 250 -305 545 -359 625 -524
760 -68 56 -101 90 -108 113 -7 19 -23 45 -36 60 l-25 25 265 -7 c146 -3 344
-13 440 -21z m-2474 -82 c-95 -135 -240 -506 -297 -760 l-22 -102 -81 6 c-45
3 -82 7 -84 8 -2 1 18 85 43 186 47 188 99 341 165 486 34 72 44 86 92 118 42
27 199 104 215 105 2 0 -12 -21 -31 -47z m1797 -103 c94 -63 203 -177 275
-290 170 -264 232 -367 314 -517 50 -92 108 -195 129 -230 22 -35 39 -67 39
-71 0 -9 -644 -341 -722 -373 -32 -12 -60 -21 -62 -18 -3 2 -57 110 -120 239
-122 248 -173 330 -206 330 -17 0 -20 -7 -20 -39 0 -29 28 -96 109 -264 132
-272 130 -267 99 -267 -13 0 -95 20 -182 44 -109 30 -165 51 -183 67 -42 40
-73 103 -88 180 -25 133 -52 184 -139 269 -25 24 -46 51 -46 60 0 26 187 367
262 478 84 124 300 352 391 412 33 22 63 40 67 40 5 0 42 -22 83 -50z m981
-23 c106 -49 236 -196 320 -364 107 -215 140 -316 220 -682 73 -331 81 -383
116 -696 65 -580 58 -1066 -20 -1317 -37 -120 -136 -227 -261 -282 -116 -50
-293 -80 -481 -81 l-146 0 -43 30 c-84 59 -109 146 -133 465 -29 369 -36 463
-36 475 0 10 23 12 98 8 88 -5 103 -3 163 21 36 14 69 26 72 26 4 0 7 -64 7
-143 0 -142 21 -366 41 -441 26 -98 113 -133 299 -123 113 7 184 23 255 57 56
27 87 64 116 137 21 54 22 73 22 293 0 498 -5 571 -50 673 -21 47 -41 53 -152
40 -47 -6 -89 -7 -93 -4 -4 3 -12 78 -18 166 -6 88 -13 169 -15 180 -3 11 -16
124 -30 250 -61 543 -137 888 -243 1105 -36 74 -61 110 -114 162 -37 37 -68
70 -68 74 0 14 125 -7 174 -29z m-3235 -243 c-12 -32 -46 -160 -78 -283 l-56
-224 -57 -13 c-120 -28 -182 -80 -193 -162 -4 -26 -15 -77 -26 -114 -11 -38
-19 -97 -19 -138 l0 -73 -42 35 c-52 42 -72 79 -63 117 3 16 37 78 75 139 38
60 83 139 100 173 28 57 142 260 251 449 36 63 117 165 125 157 2 -2 -5 -30
-17 -63z m148 -611 c47 -26 66 -53 61 -86 -2 -15 -9 -21 -23 -20 -247 29 -354
20 -355 -29 0 -19 48 -28 147 -28 170 0 227 -25 221 -98 -3 -34 -5 -37 -33
-34 -16 1 -87 5 -156 8 -135 7 -169 -1 -169 -36 0 -24 15 -28 155 -33 165 -7
214 -36 188 -114 l-10 -28 -157 0 c-161 0 -183 -5 -169 -41 6 -16 33 -21 183
-31 l115 -8 3 -37 c4 -44 -9 -52 -85 -61 -71 -8 -186 -43 -213 -65 -20 -16
-22 -22 -12 -53 6 -19 13 -61 16 -94 4 -33 16 -104 28 -157 l21 -98 -26 -68
c-64 -162 -167 -291 -275 -344 -59 -29 -76 -33 -147 -33 -55 0 -89 5 -110 17
-148 81 -212 306 -150 523 26 88 236 556 271 604 7 9 95 -66 100 -86 7 -26 -6
-43 -160 -216 -53 -59 -103 -121 -111 -137 -17 -33 -20 -86 -5 -95 23 -14 54
13 181 157 l133 151 10 -31 c15 -43 42 -73 61 -66 25 10 29 53 11 128 -38 166
-15 525 37 584 13 13 54 33 102 47 159 49 248 51 322 8z m194 -140 c17 -54 8
-172 -16 -189 -33 -24 -40 -16 -42 48 0 35 -2 72 -3 83 0 11 2 44 6 73 6 50 7
52 25 36 10 -9 23 -32 30 -51z m858 -5 c168 -56 179 -56 196 0 5 18 14 31 19
29 29 -10 95 -130 129 -237 72 -222 105 -256 308 -310 175 -46 282 -66 449
-85 80 -9 223 -34 319 -56 119 -27 177 -37 184 -30 16 16 -8 58 -45 81 -36 22
-47 25 -221 66 -94 21 -115 30 -105 39 7 7 129 71 271 144 l258 131 44 -94
c104 -225 205 -562 205 -685 0 -130 -50 -231 -146 -297 -50 -35 -64 -39 -129
-42 -129 -7 -496 78 -686 159 -167 71 -413 185 -580 270 l-177 90 -119 9 c-65
4 -138 15 -163 23 -67 21 -375 175 -395 196 -9 11 -15 31 -13 48 3 27 4 28 67
28 48 0 66 4 74 16 17 27 1 46 -50 58 -26 7 -55 17 -64 24 -25 19 -41 56 -34
78 6 19 14 20 98 17 86 -3 92 -2 95 17 4 35 -14 48 -79 56 -71 8 -99 31 -99
80 0 42 27 51 134 47 l91 -3 3 26 c4 32 -24 46 -113 57 l-60 7 -3 38 c-3 34 0
39 30 52 51 23 133 10 307 -47z m2861 -627 c75 -45 98 -95 121 -261 10 -79 17
-146 14 -149 -7 -6 -155 37 -171 50 -6 5 -14 55 -18 112 -4 56 -12 144 -19
195 -13 91 -13 92 7 86 12 -3 41 -18 66 -33z m-4020 -118 c0 -65 3 -170 6
-233 5 -105 4 -113 -10 -90 -30 53 -96 324 -96 397 0 17 8 25 33 32 69 20 67
23 67 -106z m1220 -154 c30 -5 80 -9 111 -9 l56 0 54 -62 c29 -35 59 -67 66
-71 29 -18 103 -121 103 -142 0 -31 -44 -65 -84 -65 -63 0 -160 79 -298 240
-98 115 -113 138 -80 125 9 -4 42 -11 72 -16z m2479 -106 c6 -21 16 -72 22
-113 18 -119 -11 -158 -136 -185 -122 -26 -360 -17 -380 14 -2 5 8 37 24 72
30 68 56 171 48 193 -4 10 16 15 81 20 48 4 130 13 182 21 151 20 147 21 159
-22z m-1824 -136 c61 -30 150 -71 199 -91 48 -20 114 -50 146 -66 51 -26 58
-33 63 -67 8 -46 9 -143 2 -143 -21 0 -253 131 -448 253 -120 75 -130 83 -151
131 -13 28 -33 60 -45 70 -57 51 4 29 234 -87z m2234 39 l46 -11 9 -80 c11
-99 -8 -461 -29 -559 -8 -37 -23 -82 -33 -99 -19 -33 -128 -124 -138 -115 -3
3 1 55 8 114 8 70 13 228 13 442 l-1 333 39 -7 c22 -3 60 -11 86 -18z m-2295
-244 c233 -151 571 -328 762 -398 l102 -37 6 -51 c12 -103 17 -99 -76 -59
-128 54 -439 207 -541 264 -120 68 -262 166 -360 247 l-79 65 29 23 c15 13 30
23 32 24 2 0 59 -35 125 -78z m1922 -317 c-3 -93 -11 -188 -17 -210 -17 -62
-52 -101 -111 -123 -117 -43 -339 -53 -394 -17 -29 19 -40 61 -53 195 -14 147
-25 445 -17 459 5 7 16 4 35 -10 64 -47 366 -45 489 3 l57 23 8 -75 c5 -41 6
-151 3 -245z m-1194 267 c59 -15 110 -31 114 -34 6 -7 25 -250 20 -256 -2 -1
-36 13 -77 32 -41 18 -102 44 -136 57 -69 26 -65 18 -79 168 l-7 74 29 -7 c16
-3 77 -19 136 -34z m50 -587 l107 -48 6 -56 c17 -154 44 -245 90 -305 l33 -44
-106 5 c-59 2 -125 6 -147 9 l-40 4 -38 233 c-42 258 -43 274 -24 260 6 -6 60
-32 119 -58z m-193 -692 c6 -49 14 -106 17 -128 3 -22 10 -206 14 -410 7 -339
11 -393 43 -640 20 -148 41 -331 48 -405 l12 -135 53 -52 c60 -58 62 -64 66
-184 3 -87 17 -123 43 -113 7 3 19 20 26 37 7 18 14 34 15 36 6 8 133 -101
204 -176 68 -70 276 -301 437 -484 l62 -71 -14 -38 c-16 -44 -57 -120 -66
-120 -3 0 -48 48 -100 107 -154 177 -365 388 -514 516 -172 147 -195 175 -195
236 0 46 -28 91 -57 91 -31 0 -72 31 -82 62 -16 52 -56 279 -100 573 -52 346
-68 488 -81 710 -12 202 -36 472 -49 555 -5 30 -8 56 -7 56 7 6 185 63 197 63
14 1 19 -16 28 -86z m-2249 30 c6 -6 -76 -83 -89 -83 -6 0 -5 13 3 33 7 17 16
40 20 51 5 14 12 17 34 11 15 -4 29 -9 32 -12z m99 -29 c7 -6 -41 -64 -91
-109 -52 -47 -145 -101 -155 -91 -14 14 23 69 57 86 20 10 59 44 86 74 41 45
53 53 74 49 14 -3 27 -7 29 -9z m1900 -114 c6 -63 14 -132 17 -152 l6 -37 -39
6 c-174 25 -260 59 -332 131 -87 87 -87 86 37 111 59 12 148 32 197 44 50 13
93 21 96 18 4 -3 12 -58 18 -121z m-1704 67 c61 -13 130 -29 155 -33 l45 -9 6
-155 c6 -139 20 -240 48 -337 5 -18 7 -33 5 -33 -3 0 -36 18 -74 40 -76 44
-120 52 -120 21 0 -22 33 -49 170 -142 115 -77 195 -152 185 -171 -9 -16 -179
-274 -531 -807 -294 -445 -288 -434 -264 -523 13 -44 -4 -85 -44 -112 -41 -26
-54 -55 -66 -146 -7 -49 -26 -123 -47 -175 -19 -49 -55 -139 -78 -200 -24 -60
-91 -218 -150 -350 -58 -132 -118 -268 -132 -302 -15 -35 -29 -63 -33 -63 -3
0 -55 28 -115 62 -106 59 -339 170 -457 217 -32 13 -58 27 -58 31 0 5 16 50
35 101 78 202 255 782 329 1075 83 326 129 443 564 1434 49 113 105 241 123
284 32 74 37 80 74 91 96 29 186 96 246 185 26 38 39 49 54 46 11 -2 70 -15
130 -29z m1270 -92 c86 -129 201 -192 387 -211 56 -6 67 -10 72 -28 9 -32 7
-66 -3 -66 -21 0 -269 59 -309 74 -103 37 -196 124 -251 233 l-21 42 33 4 c17
2 37 5 44 5 7 1 28 -23 48 -53z m-892 30 l47 -6 0 -134 c0 -132 14 -340 29
-442 4 -29 6 -53 3 -53 -3 0 -33 25 -68 56 -56 49 -66 63 -84 122 -33 107 -50
226 -50 353 l0 119 38 -5 c20 -2 58 -7 85 -10z m761 -70 c21 -43 58 -96 85
-123 106 -106 327 -183 464 -162 32 4 47 3 47 -4 0 -6 5 -76 10 -156 37 -531
150 -1248 207 -1312 9 -10 35 -25 59 -34 65 -25 63 -42 -13 -142 -38 -50 -53
-76 -46 -83 15 -15 46 7 85 58 31 42 48 53 48 33 0 -17 62 -81 150 -154 47
-39 136 -120 199 -181 120 -116 451 -477 451 -492 0 -15 -102 -133 -181 -210
-96 -94 -258 -223 -280 -223 -9 0 -23 7 -30 17 -28 33 -265 217 -653 508 -220
164 -420 319 -444 344 -104 108 -226 342 -365 696 -111 286 -320 794 -372 905
-48 103 -55 126 -65 220 -19 187 -30 343 -30 451 l0 107 148 -5 c81 -2 208 0
282 5 232 16 201 23 244 -63z m-653 -799 c21 -46 39 -90 39 -96 0 -7 -56 -99
-124 -204 -67 -105 -175 -272 -238 -371 -314 -493 -310 -487 -333 -595 -8 -39
-31 -100 -49 -134 -21 -37 -47 -108 -65 -181 -51 -202 -125 -388 -312 -777
-71 -149 -129 -273 -129 -277 0 -3 -4 -12 -9 -19 -6 -11 -21 -7 -69 17 -33 17
-63 35 -66 40 -4 5 30 94 75 198 232 539 309 740 335 879 22 122 29 138 75
163 56 32 61 47 54 154 l-7 92 108 155 c124 178 495 750 597 923 39 64 72 117
74 117 2 0 22 -38 44 -84z m2753 -1826 c110 -112 108 -102 58 -212 l-27 -60
-51 64 c-29 36 -77 82 -109 102 -42 29 -55 42 -49 54 3 10 15 43 25 76 23 69
26 76 43 76 7 0 56 -45 110 -100z m-134 -160 c33 -28 78 -74 100 -102 l41 -50
-25 -42 c-13 -22 -26 -41 -29 -41 -2 0 -51 49 -109 108 l-104 108 25 34 c13
19 28 35 32 35 4 0 35 -23 69 -50z m-32 -155 l101 -105 -58 -73 c-68 -84 -181
-194 -266 -258 -85 -64 -179 -119 -203 -119 -33 0 -212 160 -212 189 0 5 17
20 38 32 122 74 402 326 457 412 9 15 23 27 30 27 7 0 58 -47 113 -105z m435
-33 c40 -27 111 -72 159 -101 48 -28 115 -73 149 -98 l61 -47 -5 -52 c-6 -62
-43 -167 -159 -464 -47 -118 -100 -255 -118 -305 -53 -148 -124 -276 -191
-347 l-59 -63 -18 25 c-33 47 -86 102 -128 131 l-42 28 17 46 c16 46 28 53 62
34 16 -8 25 -7 40 7 27 25 20 55 -18 79 -18 11 -30 26 -28 35 2 8 6 32 9 52 6
35 8 36 40 31 28 -4 36 -1 46 17 16 30 6 48 -35 66 -34 14 -35 16 -35 65 0 51
0 51 28 46 38 -8 55 5 55 43 0 36 -15 50 -55 50 -16 0 -28 6 -28 13 0 6 -3 29
-6 49 -6 34 -5 37 22 40 26 3 29 7 29 38 0 32 -3 35 -34 40 -30 4 -36 10 -51
55 -9 28 -20 57 -23 65 -4 10 14 30 56 61 66 49 138 144 157 206 7 21 14 75
17 121 3 45 7 82 10 82 2 0 36 -22 76 -48z m-168 -58 c-8 -53 -64 -167 -103
-207 -15 -16 -45 -38 -66 -49 -44 -22 -116 -49 -116 -43 0 2 23 28 51 57 75
76 161 187 200 254 35 62 45 59 34 -12z m-4898 -138 c114 -44 386 -174 487
-233 l78 -46 -5 -59 c-3 -39 -17 -84 -41 -131 -62 -127 -17 -133 -401 59 -247
125 -337 174 -341 189 -5 19 67 215 88 243 16 19 39 15 135 -22z m5563 -153
c29 -33 32 -41 26 -80 -9 -68 -56 -199 -141 -398 -43 -99 -105 -250 -137 -335
-69 -180 -142 -324 -204 -404 -127 -162 -351 -263 -627 -284 -107 -8 -259 -2
-304 12 -21 7 -36 35 -49 90 -6 24 -4 28 8 24 37 -15 202 -19 303 -9 398 40
603 191 756 555 111 265 265 676 292 784 12 45 27 82 33 82 7 0 26 -16 44 -37z
m-870 -124 c6 -22 13 -46 16 -53 3 -9 -16 -16 -65 -25 -38 -7 -97 -26 -131
-42 -34 -16 -63 -29 -65 -29 -3 0 -25 85 -25 99 0 16 36 32 135 62 120 37 122
37 135 -12z m-3963 -91 c46 -27 87 -57 93 -68 8 -14 4 -37 -16 -92 -43 -119
-71 -168 -97 -168 -23 0 -206 80 -207 91 0 4 16 33 35 65 42 70 65 141 65 201
0 50 -12 53 127 -29z m-744 -90 c27 -19 27 -21 11 -39 -10 -11 -37 -33 -62
-49 l-44 -29 -36 37 c-21 21 -55 52 -77 69 l-40 32 33 34 34 35 76 -35 c43
-20 90 -45 105 -55z m-1099 -9 c50 -17 101 -40 112 -51 12 -11 35 -47 50 -81
23 -49 28 -77 29 -134 0 -39 -3 -75 -7 -79 -4 -4 -79 40 -165 99 -153 102
-278 171 -356 197 -21 6 -36 17 -34 23 5 16 61 48 100 58 57 15 174 1 271 -32z
m5850 9 c17 -64 13 -68 -72 -68 -43 0 -102 -7 -131 -16 -57 -16 -79 -9 -67 21
11 30 151 82 227 84 30 1 38 -3 43 -21z m-5079 -42 c33 -14 135 -101 135 -115
0 -4 -17 -12 -39 -17 -37 -10 -39 -10 -57 24 -10 19 -41 54 -69 78 -42 38 -46
44 -27 44 12 0 38 -6 57 -14z m-481 -57 c19 -21 42 -52 51 -68 l16 -31 -36 0
c-42 0 -75 15 -75 34 0 7 -11 35 -25 62 -14 27 -25 49 -25 50 0 0 13 -1 30 -4
18 -3 43 -19 64 -43z m349 2 c57 -39 101 -87 93 -100 -4 -6 -27 -11 -51 -11
-42 0 -46 2 -66 43 -12 23 -35 57 -53 76 l-31 34 33 -6 c18 -4 52 -20 75 -36z
m-205 15 c31 -17 84 -71 101 -103 11 -22 10 -23 -37 -23 -46 0 -51 2 -62 30
-7 17 -26 49 -41 70 -27 38 -28 40 -9 40 12 0 33 -6 48 -14z m777 -26 c38 -54
124 -134 171 -158 39 -20 140 -54 196 -66 l27 -6 -20 -48 c-11 -26 -42 -131
-69 -234 -39 -148 -107 -347 -125 -366 -1 -2 -27 12 -56 31 -78 50 -148 84
-389 187 -316 136 -359 157 -538 264 -145 86 -163 100 -158 119 3 12 9 46 12
75 l7 54 46 -7 c34 -4 53 -14 71 -36 31 -36 57 -37 72 -4 10 23 17 26 57 23
37 -2 48 -8 56 -25 8 -18 18 -23 47 -23 31 0 39 4 44 24 10 43 75 48 116 9
l28 -27 28 21 c15 11 29 29 31 39 7 36 54 46 95 19 18 -12 29 -13 55 -4 30 11
33 15 28 43 -4 28 0 34 43 64 26 18 56 42 65 52 24 27 28 26 60 -20z m243 -64
c68 -38 122 -70 120 -71 -8 -8 -95 18 -141 41 -56 28 -132 88 -141 111 -6 14
-4 14 16 1 13 -8 78 -45 146 -82z m-1823 54 c82 -28 161 -74 384 -225 363
-245 546 -348 805 -455 166 -69 453 -201 502 -231 40 -24 41 -32 14 -94 l-20
-46 -30 21 c-39 28 -248 127 -485 230 -362 157 -501 233 -833 457 -188 126
-431 263 -469 263 -40 0 22 99 63 100 6 0 37 -9 69 -20z m6233 -38 c9 -6 11
-21 6 -50 l-7 -42 -77 0 c-42 0 -105 -3 -139 -7 l-62 -6 3 33 c3 29 8 35 43
47 78 27 207 41 233 25z m-6273 -167 c94 -47 205 -117 479 -301 179 -121 408
-242 701 -372 204 -90 347 -161 326 -162 -49 -1 -825 312 -1046 422 -196 99
-503 341 -556 439 -14 27 -5 25 96 -26z m6275 -17 c-1 -21 -28 -86 -35 -87 -5
-1 -41 3 -80 10 -38 6 -97 9 -131 6 l-61 -6 6 32 c6 27 12 33 41 38 34 6 260
12 260 7z m-110 -169 c27 -6 50 -15 50 -19 0 -19 -34 -80 -44 -80 -6 0 -43 7
-81 15 -39 8 -98 15 -132 15 -35 0 -63 2 -63 5 0 15 36 58 54 65 30 12 157 12
216 -1z m-65 -164 c32 -9 82 -29 110 -45 58 -33 158 -134 153 -153 -6 -22
-151 -86 -243 -108 -97 -23 -335 -37 -419 -25 -64 10 -79 28 -71 85 10 67 28
104 75 155 45 49 94 83 138 96 46 14 194 11 257 -5z"/>
<path d="M3723 11398 c-42 -9 -83 -46 -83 -74 0 -8 8 -22 19 -33 16 -16 26
-17 62 -10 117 22 224 7 371 -52 71 -28 81 -30 95 -17 53 53 -237 201 -387
197 -19 -1 -54 -5 -77 -11z"/>
<path d="M4616 11343 c11 -61 58 -157 96 -195 45 -45 114 -78 161 -78 20 0 37
3 37 8 0 4 -28 20 -62 36 -79 37 -148 107 -190 195 -37 78 -52 90 -42 34z"/>
<path d="M4890 11194 c0 -4 9 -27 20 -50 22 -45 71 -83 133 -103 65 -22 63 -6
-4 30 -40 22 -77 52 -98 80 -32 43 -51 59 -51 43z"/>
<path d="M3867 10949 c-48 -28 -61 -135 -24 -190 52 -77 137 -30 137 75 0 90
-57 148 -113 115z"/>
<path d="M2980 10918 c-37 -60 -15 -187 33 -196 59 -11 97 34 97 115 0 70 -29
113 -75 113 -29 0 -39 -6 -55 -32z"/>
<path d="M4925 10721 c-39 -24 -86 -75 -119 -128 -31 -50 -32 -62 -9 -101 19
-33 12 -62 -17 -69 -26 -7 -21 -27 7 -31 29 -4 53 34 53 84 0 45 17 68 47 62
13 -2 19 -14 21 -46 4 -49 19 -52 40 -8 16 32 4 77 -30 113 l-21 22 33 31 c27
25 40 30 81 30 55 0 65 17 27 44 -30 21 -76 20 -113 -3z"/>
<path d="M3360 10397 c0 -17 21 -27 57 -27 18 0 24 5 21 18 -4 22 -78 31 -78
9z"/>
<path d="M3840 10262 c0 -4 5 -13 11 -19 8 -8 6 -14 -7 -21 -25 -13 -180 -48
-279 -63 -89 -13 -336 -16 -402 -5 -38 7 -43 6 -43 -12 0 -10 9 -27 21 -38 12
-10 29 -35 40 -55 47 -94 181 -157 308 -146 151 13 313 97 381 197 41 62 44
64 71 50 62 -34 30 59 -35 99 -34 21 -66 27 -66 13z m-36 -143 c-140 -147
-397 -196 -509 -97 -56 48 -48 58 48 58 110 0 231 15 352 44 141 33 145 33
109 -5z"/>
<path d="M3374 9799 c-2 -3 8 -11 22 -18 46 -21 217 -10 194 13 -8 7 -211 12
-216 5z"/>
<path d="M2421 1784 c0 -11 3 -14 6 -6 3 7 2 16 -1 19 -3 4 -6 -2 -5 -13z"/>
</g>
</svg>
